<?xml version="1.0"?>
<svg xmlns="http://www.w3.org/2000/svg" xmlns:xlink="http://www.w3.org/1999/xlink" width="988.333313" height="638.333313">
	<defs>
		<linearGradient id="Fill_LG-01" gradientTransform="matrix(-5.23066e-008 0.637193 -1.56938 -7.9304e-016 291.718 185.881)">
			<stop offset="0%" stop-color="#096B00" />
			<stop offset="36.1538%" stop-color="#00DBDB" />
			<stop offset="100%" stop-color="#0E00E5" />
		</linearGradient>
	</defs>
	<rect x="-291.718048" y="0" width="583.436096" height="371.761658" stroke="none" fill="url(#Fill_LG-01)" transform="matrix(1.66667 0 -0 1.66667 495 11.6665)" />
	<g transform="matrix(1 0 -0 1 98.9211 482.495)">
		<svg width="347.930176" height="285.195282">
			<defs />
			<path d="M 15.3112 8.90302 L 19.4676 8.75908 C 19.4676 5.41235, 19.4226 3.01026, 19.3147 1.56181 L 22.7244 3.00126, 21.5368 4.00888 C 21.4469 6.60889, 21.3929 8.14731, 21.3929 8.61513 L 25.8372 8.47118, 26.7279 7.03173, 28.95 8.75908, 27.7715 9.62275 C 27.4746 11.647, 27.3216 13.2754, 27.3216 14.5169, 27.3216 16.1543, 27.6005 17.7467, 28.1403 19.2761, 28.6801 20.8145, 29.5438 21.8671, 30.7313 22.4339, 31.2351 20.0408, 31.676 18.1695, 32.0718 16.82 L 32.6566 16.82 C 32.4587 18.6553, 32.3867 20.1667, 32.4407 21.3633, 32.4947 22.5688, 32.7106 23.5944, 33.1064 24.4491, 33.4033 25.0339, 33.2504 25.3218, 32.6566 25.3128, 32.4587 25.3218, 31.748 25.1329, 30.5064 24.746, 29.2739 24.3681, 28.1853 23.3605, 27.2497 21.7231, 26.314 20.0948, 25.7922 18.6283, 25.6933 17.3328, 25.5943 16.0373, 25.5403 15.0567, 25.5403 14.3729, 25.5403 12.8435, 25.6393 11.1702, 25.8372 9.33486 L 21.3929 9.4788 C 21.2939 12.4657, 20.997 14.8138, 20.5022 16.5321, 22.4815 17.9806, 23.5701 19.0152, 23.768 19.6359, 23.9659 20.2657, 24.0649 20.6705, 24.0649 20.8505, 24.0649 21.1474, 23.9659 21.5342, 23.768 22.011, 23.5701 22.4969, 23.3721 22.7308, 23.1742 22.7218, 22.9763 22.7308, 22.6794 22.3439, 22.2836 21.5702, 21.6898 20.4276, 20.8531 19.2311, 19.7645 17.9716, 17.6953 21.4353, 15.1673 23.9273, 12.1984 25.4567 L 11.9015 25.0249 C 14.8704 22.7308, 17.0026 19.9958, 18.2801 16.82, 17.3984 15.9653, 16.4538 15.1466, 15.4641 14.3729 L 15.761 13.9411 C 17.1465 14.6248, 18.1271 15.2006, 18.7209 15.6684, 19.1168 13.7612, 19.3687 11.7459, 19.4676 9.62275 L 17.0925 9.76669, 16.4988 10.1985 Z M 26.1341 26.3204 L 26.5839 26.0325 C 28.959 27.6699, 30.3625 28.8304, 30.8123 29.4962, 31.2621 30.1709, 31.4781 30.7467, 31.4781 31.2145, 31.4781 31.8893, 31.2801 32.4921, 30.8843 33.0139, 30.4884 33.5447, 30.1915 33.8056, 29.9936 33.8056, 29.6967 33.8056, 29.4448 33.2838, 29.2469 32.2222, 28.959 30.6927, 27.9154 28.7315, 26.1341 26.3204 Z M 8.05096 8.75908 C 8.05096 5.02549, 8.00598 2.53344, 7.89802 1.27392 L 11.1638 2.56943, 9.97623 3.57704, 9.97623 8.75908, 11.7576 8.75908, 13.3859 7.17568, 15.6081 9.62275, 9.97623 9.62275, 9.97623 14.6608 C 11.1638 14.283, 12.8461 13.7612, 15.0143 13.0774 L 15.1673 13.6532 C 12.9001 14.6248, 11.1638 15.3896, 9.97623 15.9563 L 9.97623 22.002 C 10.0752 23.8373, 9.08557 25.1329, 7.00736 25.8886, 6.91739 24.647, 5.72984 23.6934, 3.45371 23.0097 L 3.45371 22.4339 C 5.23503 22.6318, 6.44957 22.7308, 7.08833 22.7308, 7.73608 22.7308, 8.05096 22.3979, 8.05096 21.7142 L 8.05096 16.6761 C 4.48832 18.0256, 2.4191 19.0871, 1.82533 19.8429 L 0.0440059 17.2518 C 1.52844 17.0719, 4.20043 16.3972, 8.05096 15.2366 L 8.05096 9.62275, 6.12569 9.62275 C 4.83918 9.63174, 3.65163 9.77569, 2.56305 10.0546 L 1.23155 8.75908 Z M 5.08209 26.3204 L 5.67587 26.3204 C 5.67587 29.4962, 5.37898 31.5564, 4.7852 32.51, 4.19143 33.4727, 3.4807 33.8595, 2.63502 33.6616, 1.79834 33.4727, 1.3755 33.1848, 1.3755 32.7979, 1.3755 32.51, 1.6274 32.1772, 2.12222 31.7903, 3.11184 30.8367, 4.09247 29.0194, 5.08209 26.3204 Z M 11.3077 26.6083 C 13.188 28.3446, 14.2766 29.6941, 14.5735 30.6478, 14.8704 31.6014, 14.7264 32.3481, 14.1327 32.8699, 13.5389 33.4007, 13.143 33.6616, 12.9451 33.6616, 12.5493 33.6616, 12.3063 33.0858, 12.1984 31.9343, 12.1084 30.3149, 11.6136 28.5875, 10.7139 26.7522 Z M 18.7209 26.3204 C 20.7991 27.9578, 21.9867 29.0913, 22.2836 29.7121, 22.5804 30.3419, 22.7244 30.7917, 22.7244 31.0706, 22.7244 31.6464, 22.5085 32.1772, 22.0586 32.654, 21.6178 33.1398, 21.3479 33.3737, 21.2399 33.3737, 20.8531 33.3737, 20.5562 32.7979, 20.3583 31.6464, 20.0614 29.928, 19.3687 28.2457, 18.2801 26.6083 Z" stroke="none" fill="#FFFFFF" />
			<path d="M 55.3563 27.0401 C 55.3563 30.2159, 55.4103 32.51, 55.5002 33.9495 L 53.2781 34.9571 C 53.386 32.9419, 53.431 30.3149, 53.431 27.0401 L 45.1272 27.0401 C 43.9396 27.0491, 42.8061 27.1931, 41.7175 27.472 L 40.386 26.1765, 53.431 26.1765, 53.431 21.2823, 46.7556 21.2823, 45.568 22.4339, 43.9396 20.7065, 44.8303 20.1308 C 45.9189 18.2235, 46.9535 16.0103, 47.9431 13.5093 L 45.7209 13.5093 C 44.5334 13.5183, 43.3998 13.6622, 42.3112 13.9411 L 40.9708 12.6456, 48.24 12.6456 C 49.0317 10.4504, 49.5265 8.62413, 49.7244 7.17568 L 52.3874 8.61513 C 51.9916 8.81305, 51.2538 10.1625, 50.1653 12.6456 L 61.438 12.6456, 63.5072 10.9183, 66.1792 13.5093, 49.8684 13.5093 C 48.9867 15.7224, 47.9431 18.0256, 46.7556 20.4186 L 53.431 20.4186 C 53.431 18.0256, 53.386 16.2532, 53.2781 15.0927 L 56.6878 16.5321, 55.3563 17.5397, 55.3563 20.4186, 59.3598 20.4186, 61.438 18.5474, 64.2539 21.2823, 55.3563 21.2823, 55.3563 26.1765, 62.4726 26.1765, 64.5508 24.1612, 67.5107 27.0401 Z M 33.7105 34.8132 C 35.4918 31.4574, 36.6614 28.2996, 37.2012 25.3218, 37.741 22.3529, 38.0379 18.8712, 38.0829 14.8857, 38.1368 10.9093, 38.0559 7.57153, 37.8579 4.87255 L 40.233 6.16806, 62.4726 6.16806, 64.6947 4.29677, 67.5107 7.03173, 40.233 7.03173 C 40.341 16.1543, 39.8732 22.4429, 38.8296 25.8976, 37.786 29.3522, 36.2296 32.4201, 34.1513 35.1011 Z M 49.4275 1.12997 C 51.3078 1.71475, 52.5404 2.24555, 53.1341 2.72237, 53.7279 3.20818, 54.0068 3.71199, 53.9528 4.2338, 53.8988 4.76459, 53.7279 5.19643, 53.431 5.5293, 53.1341 5.87117, 52.8822 6.03311, 52.6843 6.02411, 52.4864 6.03311, 52.2435 5.74522, 51.9466 5.16044, 51.5507 4.30577, 50.6601 3.10922, 49.2746 1.56181 Z" stroke="none" fill="#FFFFFF" />
			<path d="M 105.759 29.5853 C 105.636 29.9125, 105.423 30.0761, 105.119 30.0761, 103.996 30.0106, 102.878 29.9779, 101.766 29.9779 L 101.21 29.9779 C 99.8959 30.0004, 98.576 30.0331, 97.2511 30.0761, 96.9485 30.0761, 96.7849 29.935, 96.7624 29.6508 L 96.7624 29.5199, 96.8299 29.2418 C 96.9199 28.883, 97.1386 28.7082, 97.4862 28.7184, 97.9023 28.7194, 98.2734 28.7061, 98.5985 28.6785, 98.9247 28.6519, 99.2395 28.5558, 99.5422 28.3913, 99.6546 28.3381, 99.7507 28.2614, 99.8284 28.1622, 99.8734 28.0764, 99.902 27.9884, 99.9122 27.9005 L 99.9122 27.8024, 99.5084 22.3717, 91.893 22.3717, 89.2145 26.9518 C 89.0683 27.2145, 88.9947 27.4548, 88.9947 27.6715, 88.9947 27.8576, 89.0509 28.0273, 89.1634 28.1786, 89.4108 28.5395, 89.8719 28.7194, 90.5446 28.7184, 90.8482 28.7194, 91.0107 28.8503, 91.0332 29.111, 91.0332 29.1774, 91.022 29.248, 90.9995 29.3236 L 90.933 29.5853 C 90.8093 29.9125, 90.5906 30.0761, 90.2757 30.0761, 89.2431 30.0331, 88.2208 30.0004, 87.2087 29.9779 L 86.7547 29.9779 C 85.8786 29.9779, 84.9912 30.0106, 84.0926 30.0761, 83.9239 30.0761, 83.8002 30.0219, 83.7215 29.9125, 83.654 29.8481, 83.6203 29.7714, 83.6203 29.6835, 83.6203 29.6191, 83.6315 29.5536, 83.654 29.4872 L 83.7215 29.2418 C 83.8114 28.883, 84.0312 28.7082, 84.3788 28.7184, 84.7387 28.7194, 85.0924 28.6816, 85.44 28.6049, 85.7886 28.5293, 86.1148 28.3923, 86.4174 28.196, 86.721 27.9997, 87.0022 27.7625, 87.2598 27.4844, 87.5184 27.2064, 87.7485 26.8925, 87.9509 26.5429 L 99.8448 6.17787 C 100.047 5.87321, 100.306 5.726, 100.621 5.73622 L 100.941 5.73622 C 101.301 5.73724, 101.502 5.90593, 101.547 6.2433 L 103.029 27.557 C 103.052 27.8412, 103.086 28.0569, 103.131 28.2042, 103.176 28.3514, 103.254 28.4577, 103.367 28.5221, 103.524 28.6213, 103.785 28.6785, 104.15 28.6949, 104.516 28.7112, 104.928 28.7194, 105.388 28.7184, 105.703 28.7194, 105.86 28.8503, 105.86 29.111, 105.86 29.1774, 105.849 29.248, 105.826 29.3236 Z M 98.6998 10.7743 L 92.7017 21.0468, 99.4072 21.0468 Z" stroke="none" fill="#FFFFFF" />
			<path d="M 110.362 18.0697 C 110.272 18.3212, 110.12 18.447, 109.907 18.4459 L 109.772 18.4459, 109.671 18.3969 C 109.458 18.3437, 109.339 18.1965, 109.317 17.9552 L 109.317 17.8407, 111.018 7.29018 C 111.098 6.78923, 111.336 6.41096, 111.735 6.15436, 112.133 5.89877, 112.535 5.76996, 112.939 5.76894, 113.378 5.76996, 113.731 5.90593, 114 6.17787, 114.17 6.34247, 114.254 6.56023, 114.254 6.83217, 114.254 7.02948, 114.204 7.25848, 114.101 7.51918 Z" stroke="none" fill="#FFFFFF" />
			<path d="M 44.7219 72.2633 C 44.6891 72.4065, 44.6155 72.5291, 44.5031 72.6324, 44.3906 72.7367, 44.2679 72.7878, 44.133 72.7868, 44.088 72.8093, 44.0318 72.8205, 43.9643 72.8195, 43.8294 72.8205, 43.7619 72.8093, 43.7619 72.7868, 43.4818 72.7878, 43.3294 72.6682, 43.3069 72.4269 L 43.3069 72.3124 C 43.3744 71.8012, 43.4306 71.2829, 43.4756 70.7585, 43.5206 70.3557, 43.5431 69.9856, 43.5431 69.6461 L 43.5431 69.3681 C 43.5206 68.9326, 43.4674 68.543, 43.3836 68.1995, 43.2998 67.856, 43.1505 67.5647, 42.9369 67.3234, 42.5095 66.8224, 41.8746 66.526, 41.0322 66.4329, 40.1898 66.3409, 39.2912 66.2939, 38.3363 66.2929 L 34.7142 66.2929 C 34.1192 66.2939, 33.7716 66.3379, 33.6704 66.4237, 33.6141 66.4687, 33.5017 66.7897, 33.333 67.3888 L 31.2433 75.3712, 33.5692 75.3712 C 34.1989 75.3723, 34.7714 75.3457, 35.2877 75.2905, 35.805 75.2363, 36.2487 75.0727, 36.6188 74.7987, 36.9562 74.5268, 37.2118 74.1455, 37.3856 73.6547, 37.5593 73.164, 37.7311 72.6028, 37.8988 71.9689, 38.0225 71.6428, 38.2361 71.4843, 38.5387 71.4945 L 38.825 71.4945 C 39.1399 71.4956, 39.2973 71.6377, 39.2973 71.9198 L 39.2973 72.0343, 37.1913 80.1313 C 37.1238 80.4707, 36.9051 80.6342, 36.5339 80.622 L 36.264 80.622 C 35.9502 80.623, 35.7927 80.4921, 35.7927 80.2294, 35.7927 80.165, 35.8101 80.1047, 35.8428 80.0495, 35.9901 79.4402, 36.0964 78.8779, 36.1639 78.3647, 36.1863 78.2348, 36.1976 78.1203, 36.1976 78.0211, 36.1976 77.7165, 36.1301 77.4711, 35.9952 77.2851, 35.805 77.0244, 35.4646 76.869, 34.9759 76.8199, 34.4872 76.7708, 33.9403 76.7463, 33.333 76.7453 L 30.907 76.7453, 28.5985 85.7091 C 28.4861 86.0915, 28.4299 86.3757, 28.4299 86.5597 L 28.4299 86.6252 C 28.4748 86.6701, 28.7897 86.6967, 29.3735 86.7069 L 33.2318 86.7069 C 34.2316 86.708, 35.2008 86.6405, 36.1383 86.5035, 37.0768 86.3675, 37.9499 86.021, 38.7575 85.4638, 39.1174 85.2031, 39.4609 84.8545, 39.786 84.4179, 40.1121 83.9824, 40.4209 83.4999, 40.7133 82.9703, 41.0057 82.4417, 41.2827 81.8805, 41.5465 81.2855, 41.8102 80.6915, 42.072 80.1047, 42.3296 79.526, 42.4195 79.2653, 42.6169 79.1345, 42.9195 79.1335 L 43.2057 79.1335 C 43.5206 79.1345, 43.678 79.2766, 43.678 79.5587 L 43.678 79.6896, 40.3248 87.672 C 40.2021 87.9337, 39.9997 88.0646, 39.7185 88.0646 L 22.1967 88.0646 C 22.028 88.0646, 21.9043 88.0155, 21.8256 87.9174, 21.7479 87.8417, 21.709 87.7599, 21.708 87.672, 21.709 87.6076, 21.7203 87.5422, 21.7417 87.4757 L 21.8092 87.2304 C 21.8429 87.0893, 21.9217 86.9676, 22.0454 86.8634, 22.1691 86.7601, 22.3091 86.708, 22.4655 86.7069, 22.9941 86.708, 23.4889 86.6998, 23.949 86.6834, 24.409 86.6671, 24.7576 86.6098, 24.9928 86.5107, 25.1952 86.4023, 25.3526 86.1078, 25.4651 85.6273 L 30.1995 67.307 C 30.267 67.0678, 30.3007 66.8777, 30.3007 66.7345, 30.3007 66.6047, 30.2731 66.528, 30.2159 66.5055, 30.0584 66.4084, 29.7497 66.3491, 29.2896 66.3266, 28.8296 66.3051, 28.3348 66.2939, 27.8062 66.2929, 27.4924 66.2939, 27.3349 66.1467, 27.3349 65.8512 L 27.3349 65.7367, 27.4024 65.4586 C 27.4924 65.0998, 27.7122 64.9199, 28.0598 64.9189 L 45.1267 64.9189 C 45.4078 64.9199, 45.5592 65.0558, 45.5816 65.3278 L 45.5816 65.4423 Z" stroke="none" fill="#FFFFFF" />
			<path d="M 0.806097 3.34066 C 0.734124 3.54185, 0.613079 3.64245, 0.442144 3.64164 L 0.334185 3.64164, 0.253216 3.60238 C 0.0830986 3.55985, -0.0117745 3.44207, -0.0297678 3.24906 L -0.0297678 3.15746, 1.33117 -5.28298 C 1.39496 -5.68373, 1.58553 -5.98634, 1.9045 -6.19163, 2.22347 -6.3961, 2.54489 -6.49915, 2.86795 -6.49997, 3.21882 -6.49915, 3.5018 -6.39037, 3.7169 -6.17282, 3.85267 -6.04114, 3.91973 -5.86693, 3.91973 -5.64938, 3.91973 -5.49153, 3.87966 -5.30833, 3.79787 -5.09977 Z" stroke="none" fill="#FFFFFF" transform="matrix(1.12 0 0 1 50.6983 68.8967)" />
			<path d="M 5.00581 -1.20676 C 4.93711 -0.937678, 4.79684 -0.734437, 4.58616 -0.597035, 4.37548 -0.459633, 4.16308 -0.390932, 3.94896 -0.391504, 3.72911 -0.390932, 3.54648 -0.46135, 3.40164 -0.602188, 3.28256 -0.699514, 3.22244 -0.833482, 3.22244 -1.00523, 3.22244 -1.08997, 3.23504 -1.17584, 3.26023 -1.26172, 3.31691 -1.47469, 3.41595 -1.64244, 3.55736 -1.76496, 3.69934 -1.8869, 3.79495 -1.95446, 3.84533 -1.96705, 3.70106 -2.0764, 3.40221 -2.13136, 2.94878 -2.13193, 2.47131 -2.13136, 2.04536 -1.93728, 1.67094 -1.54969, 1.29652 -1.16153, 0.95874 -0.638256, 0.656455 0.0207028 L -0.711844 5.26031 C -0.76795 5.48703, -0.883024 5.65592, -1.05592 5.7687, -1.22882 5.88206, -1.40344 5.93816, -1.57977 5.93816, -1.76812 5.93816, -1.91297 5.87748, -2.01373 5.75496, -2.09503 5.67595, -2.13625 5.56603, -2.13625 5.4252, -2.13625 5.37081, -2.12995 5.30382, -2.11736 5.22367 L -0.664898 -0.446465 C -0.564136 -0.842642, -0.513756 -1.185, -0.513756 -1.4724 L -0.513756 -1.69225 C -0.544671 -1.9848, -0.692379 -2.13136, -0.956878 -2.13193, -1.23397 -2.13136, -1.46527 -1.90808, -1.65076 -1.46267, -1.83625 -1.01668, -2.01659 -0.436732, -2.19293 0.277187, -2.2622 0.442643, -2.37842 0.527946, -2.54216 0.533672 L -2.75914 0.533672 C -2.91028 0.534244, -2.98585 0.4581, -2.98585 0.304668 L -2.98585 0.240547 C -2.91028 -0.0457082, -2.82498 -0.358871, -2.73051 -0.697797, -2.63605 -1.03672, -2.5101 -1.35733, -2.35323 -1.65961, -2.19579 -1.9619, -1.9977 -2.21838, -1.75896 -2.42907, -1.51966 -2.63975, -1.22138 -2.74509, -0.862987 -2.74566, -0.384368 -2.74509, 0.000930786 -2.60883, 0.292911 -2.33746, 0.585463 -2.06552, 0.750346 -1.79873, 0.788131 -1.53652, 1.00855 -1.82908, 1.31541 -2.10388, 1.70815 -2.36037, 2.10147 -2.61685, 2.55261 -2.74509, 3.06214 -2.74566, 3.31404 -2.74509, 3.56996 -2.71876, 3.83102 -2.66723, 4.09209 -2.61513, 4.32166 -2.52983, 4.51975 -2.41075, 4.71784 -2.29166, 4.8644 -2.13422, 4.95886 -1.93957, 5.01554 -1.81705, 5.04703 -1.67965, 5.05276 -1.52736, 5.05276 -1.43519, 5.0373 -1.32813, 5.00581 -1.20676 Z" stroke="none" fill="#FFFFFF" transform="matrix(1.12 0 0 1 50.311 87.107)" />
			<path d="M 65.6662 87.8029 C 65.6662 89.0788, 65.4055 90.2841, 64.8831 91.4179, 64.3607 92.5527, 63.6277 93.5556, 62.684 94.4276, 62.5838 94.4931, 62.4714 94.5258, 62.3467 94.5258, 62.2577 94.5258, 62.1402 94.4931, 61.9929 94.4276 L 61.9091 94.2968 C 61.8191 94.2099, 61.7742 94.1117, 61.7742 94.0023, 61.7742 93.9042, 61.8191 93.7897, 61.9091 93.6588, 62.7628 92.8737, 63.4171 91.9802, 63.872 90.9762, 64.3269 89.9733, 64.5539 88.9152, 64.5539 87.8029, 64.5539 87.7272, 64.5488 87.6434, 64.5375 87.5504, 64.5263 87.4584, 64.5202 87.5146, 64.5202 87.7211, 64.3412 87.9286, 63.9262 88.0319, 63.2739 88.0319, 62.6227 88.0319, 62.1289 87.8315, 61.7915 87.4277, 61.4542 87.0249, 61.2855 86.5771, 61.2855 86.0854, 61.2855 85.5957, 61.4542 85.152, 61.7915 84.7533, 62.1289 84.3556, 62.6227 84.1562, 63.2739 84.1552, 63.7565 84.1562, 64.1501 84.2789, 64.4527 84.5242, 64.7563 84.7696, 64.9976 85.0671, 65.1775 85.4157, 65.3575 85.7654, 65.4842 86.1518, 65.5568 86.5771, 65.6304 87.0024, 65.6662 87.4113, 65.6662 87.8029 Z" stroke="none" fill="#FFFFFF" />
			<path d="M 93.2767 72.3615 C 93.244 72.5046, 93.1734 72.6273, 93.0671 72.7305, 92.9608 72.8348, 92.8279 72.8859, 92.6704 72.8849 L 92.3504 72.8849 C 92.0366 72.8859, 91.8792 72.7551, 91.8792 72.4923 L 91.8792 72.3778 C 91.9691 71.8881, 92.0468 71.379, 92.1143 70.8494, 92.1818 70.3209, 92.238 69.8271, 92.283 69.3681 L 92.283 68.8446 C 92.283 68.5952, 92.2717 68.3662, 92.2492 68.1576, 92.2043 67.8203, 92.1255 67.5647, 92.0131 67.3888, 91.7105 66.9973, 91.2872 66.7335, 90.7423 66.5965, 90.1974 66.4605, 89.5881 66.392, 88.9133 66.391 L 87.0435 66.391 C 86.4822 66.392, 86.1336 66.4248, 85.9987 66.4892, 85.8985 66.5883, 85.786 66.9155, 85.6623 67.4706 L 80.9616 85.6928 C 80.9166 85.8574, 80.8941 85.9882, 80.8941 86.0854, 80.8941 86.3041, 80.9616 86.435, 81.0955 86.4779, 81.4104 86.5771, 81.9165 86.6405, 82.6127 86.6671, 83.3089 86.6947, 84.0051 86.708, 84.7013 86.7069, 85.0162 86.708, 85.1736 86.8388, 85.1736 87.0995, 85.1736 87.166, 85.1624 87.2365, 85.1399 87.3122 L 85.0724 87.5575 C 85.0049 87.8969, 84.7862 88.0646, 84.4151 88.0646, 82.5728 87.9992, 80.7142 87.9665, 78.8382 87.9665, 76.9734 87.9665, 75.0985 87.9992, 73.2112 88.0646, 73.0436 88.0646, 72.9199 88.0155, 72.8401 87.9174, 72.7624 87.8417, 72.7226 87.7599, 72.7226 87.672, 72.7226 87.6076, 72.7338 87.5422, 72.7563 87.4757 L 72.8238 87.2304 C 72.8575 87.0893, 72.9362 86.9676, 73.0599 86.8634, 73.1836 86.7601, 73.3237 86.708, 73.4811 86.7069, 74.1661 86.708, 74.8685 86.6947, 75.5872 86.6671, 76.3059 86.6405, 76.8313 86.5771, 77.1626 86.479, 77.4938 86.3808, 77.7157 86.0976, 77.8271 85.6273 L 82.5278 67.3888 C 82.6403 67.0085, 82.6965 66.7192, 82.6965 66.5219 L 82.6965 66.4565 C 82.6515 66.4135, 82.3428 66.392, 81.7703 66.391 L 79.8994 66.391 C 79.2267 66.392, 78.5693 66.4636, 77.9293 66.6047, 77.2894 66.7468, 76.7158 67.0187, 76.2098 67.4215, 75.9746 67.6076, 75.7497 67.8755, 75.536 68.2241, 75.3234 68.5737, 75.1128 68.9745, 74.9042 69.4263, 74.6967 69.8792, 74.4973 70.3618, 74.3062 70.874, 74.116 71.3872, 73.9248 71.8994, 73.7337 72.4106, 73.6212 72.7387, 73.4137 72.8972, 73.11 72.8849 L 72.8238 72.8849 C 72.6561 72.8859, 72.5324 72.8318, 72.4527 72.7213, 72.3852 72.6569, 72.3515 72.5803, 72.3515 72.4923, 72.3515 72.4279, 72.3688 72.3625, 72.4026 72.2961, 72.695 71.196, 73.0599 70.0725, 73.4975 68.9274, 73.9361 67.7824, 74.3522 66.6425, 74.7448 65.5077, 74.8572 65.1816, 75.0699 65.018, 75.3847 65.017 L 93.9514 65.017 C 94.2663 65.018, 94.4227 65.154, 94.4227 65.4259 L 94.4227 65.5404 Z" stroke="none" fill="#FFFFFF" />
			<path d="M 2.77742 16.2002 C -8.14358 8.91013, -8.14358 -8.91013, 2.77742 -16.2002 L 4.49262 -16.2002 C -5.35638 -8.91013, -5.35638 8.91013, 4.49262 16.2002" stroke="none" fill="#FFFFFF" transform="matrix(1 0 -0 1 15.5146 78.0018)" />
			<path d="M 2.77742 16.2002 C -8.14358 8.91013, -8.14358 -8.91013, 2.77742 -16.2002 L 4.49262 -16.2002 C -5.35638 -8.91013, -5.35638 8.91013, 4.49262 16.2002" stroke="none" fill="#FFFFFF" transform="matrix(-1 1.50996e-007 -1.50996e-007 -1 99.0868 78.0018)" />
			<rect />
		</svg>
	</g>
	<path d="M 0 0 C -28.8708 14.3314, -25.2665 44.7207, -25.4475 70.0936, -25.6285 95.4664, -16.4244 106.08, -0.885132 124.096, 14.6541 142.113, 29.4348 153.268, 50.5537 158.211, 71.6726 163.155, 83.8605 159.053, 102.406 148.275, 120.951 137.496, 132.436 122.573, 141.256 105.496, 150.075 88.419, 150.753 86.3213, 145.539 64.7515, 140.326 43.1816, 145.514 13.2391, 115.757 0, 85.9998 -13.2391, 28.8708 -14.3314, 0 0 Z" stroke="none" fill="#ADCBF1" fill-opacity="0.392156839" transform="matrix(1.66667 0 0 1.66667 674.294 124.777)" />
	<path d="M 0 0 C -28.8708 14.3314, -25.2665 44.7207, -25.4475 70.0936, -25.6285 95.4664, -16.4244 106.08, -0.885132 124.096, 14.6541 142.113, 29.4348 153.268, 50.5537 158.211, 71.6726 163.155, 83.8605 159.053, 102.406 148.275, 120.951 137.496, 132.436 122.573, 141.256 105.496, 150.075 88.419, 150.753 86.3213, 145.539 64.7515, 140.326 43.1816, 145.514 13.2391, 115.757 0, 85.9998 -13.2391, 28.8708 -14.3314, 0 0 Z" fill="none" stroke="#000000" stroke-width="0.600000024" stroke-linecap="round" stroke-linejoin="round" transform="matrix(1.66667 0 0 1.66667 674.294 124.777)" />
	<g transform="matrix(1 0 -0 1 728.491 191.986)">
		<svg width="320.916229" height="285.195282">
			<defs />
			<path d="M 27.3576 20.1308 L 19.1977 20.7065, 19.1977 30.2069 C 19.3956 32.51, 18.2621 34.0035, 15.779 34.6692, 15.779 33.1398, 14.2496 32.0332, 11.1818 31.3585 L 11.1818 30.7827 C 13.7548 31.0796, 15.4192 31.2235, 16.1569 31.2235, 16.8946 31.2235, 17.2185 30.5488, 17.1195 29.1993 L 17.1195 20.9944 C 14.3486 21.1923, 12.0994 21.4622, 10.3631 21.7951, 8.63574 22.137, 7.26826 22.4879, 6.27864 22.8657 L 4.7942 20.1308 C 5.89178 20.0408, 7.60113 19.474, 9.92225 18.4124, 12.2434 17.3598, 15.4821 15.5785, 19.6386 13.0774, 15.6801 13.4733, 12.9091 13.8331, 11.3257 14.166, 9.74232 14.5079, 8.45581 14.9127, 7.46618 15.3806 L 5.98175 12.5017 C 7.36722 12.4117, 9.07657 11.629, 11.1098 10.1356, 13.143 8.65112, 14.7984 6.99574, 16.0759 5.16044, 10.2461 5.55629, 6.18867 5.74522, 3.90354 5.73622 L 3.90354 5.16044 C 9.84128 4.69262, 14.6904 4.14383, 18.451 3.51407, 22.2116 2.8933, 25.3784 2.1016, 27.9514 1.12997 L 30.1825 3.86493 C 28.6981 3.77497, 26.6919 3.87393, 24.1728 4.16182, 21.6538 4.44971, 19.1527 4.7376, 16.6697 5.0165 L 19.6386 6.45595 C 18.361 6.65388, 16.6247 7.61651, 14.4475 9.33486, 12.1714 11.0712, 10.4351 12.1778, 9.24751 12.6456 L 20.979 12.2138 C 22.8593 10.9722, 24.2898 9.73071, 25.2794 8.47118 L 28.1043 10.7743 C 27.0158 10.8823, 25.7742 11.3141, 24.3888 12.0698, 22.9133 12.9425, 20.4123 14.337, 16.8946 16.2532, 13.3859 18.1785, 10.7859 19.519, 9.10356 20.2747 L 26.7638 19.411 C 25.2884 17.9806, 24.0469 16.928, 23.0573 16.2442 L 23.3541 15.8124 C 26.0261 16.784, 27.9784 17.6207, 29.2199 18.3404, 30.4614 19.0602, 31.1002 19.8339, 31.1452 20.6436, 31.1992 21.4622, 31.0012 22.209, 30.5514 22.8747, 30.1106 23.5495, 29.6697 23.5045, 29.2199 22.7308, 28.7701 21.9661, 28.1493 21.1024, 27.3576 20.1308 Z M 21.5728 23.8733 C 26.2241 25.7986, 29.121 27.1481, 30.2545 27.9128, 31.3971 28.6865, 32.0179 29.5232, 32.1168 30.4318, 32.2158 31.3495, 32.0898 32.0332, 31.739 32.51, 31.3971 32.9959, 31.1722 33.2298, 31.0732 33.2298, 30.5784 33.2298, 30.0296 32.654, 29.4358 31.5024, 28.4462 29.7841, 25.7292 27.382, 21.2759 24.3052 Z M 11.1818 23.2975 L 13.8538 25.8886 C 13.0621 25.8976, 11.4337 26.8062, 8.95062 28.6235, 6.48556 30.5488, 3.61565 32.1772, 0.340893 33.5177 L 0.0440059 33.0858 C 2.22118 31.8443, 4.32638 30.3869, 6.35961 28.7045, 8.39283 27.0311, 9.99422 25.2228, 11.1818 23.2975 Z" stroke="none" fill="#000000" />
			<path d="M 53.8988 1.70576 L 54.1957 1.27392 C 56.6788 2.43448, 58.0643 3.37012, 58.3611 4.08985, 58.658 4.80958, 58.5591 5.48432, 58.0643 6.10508, 57.5694 6.73484, 57.2186 7.04073, 57.0207 7.03173, 56.7238 7.04073, 56.4719 6.60889, 56.2739 5.73622, 55.8781 4.40473, 55.0864 3.05524, 53.8988 1.70576 Z M 47.9611 16.82 C 49.0587 16.5411, 50.3722 15.4435, 51.9016 13.5183, 53.431 11.602, 54.5466 9.77569, 55.2393 8.03935 L 51.9736 8.03935 C 50.6871 8.04834, 49.4995 8.19229, 48.4109 8.47118 L 47.0704 7.17568, 63.1023 7.17568, 65.1805 5.16044, 67.7086 8.03935, 55.9771 8.03935, 58.2082 9.76669 C 57.2186 10.0636, 56.184 10.7383, 55.0954 11.7909, 54.0068 12.8525, 52.4684 14.5259, 50.4891 16.82 L 62.8055 16.2442 C 61.7259 15.0027, 60.4843 13.7612, 59.0989 12.5017 L 59.3958 12.0698 C 61.0781 12.8435, 62.5895 13.6172, 63.921 14.3819, 65.2615 15.1556, 66.0082 15.7314, 66.1522 16.1093, 66.2961 16.4961, 66.3681 16.874, 66.3681 17.2518, 66.3681 17.8366, 66.2511 18.3674, 65.9992 18.8442, 65.7563 19.3301, 65.5314 19.564, 65.3335 19.555, 65.2345 19.564, 65.0816 19.375, 64.8837 18.9792, 64.4878 18.4124, 63.993 17.7377, 63.3992 16.964, 60.4304 17.2608, 57.6414 17.5757, 55.0144 17.9086, 52.3964 18.2505, 50.4891 18.7993, 49.3016 19.555 Z M 52.8642 18.2595 L 55.0864 17.8276, 54.9424 21.1384 C 54.6456 25.8526, 53.602 29.0464, 51.8206 30.7197, 50.0393 32.3931, 47.3223 33.7606, 43.6607 34.8132 L 43.5078 34.3813 C 46.2787 33.0408, 48.312 31.7453, 49.5985 30.5038, 50.885 29.2623, 51.7487 27.6969, 52.1985 25.8256, 52.6483 23.9543, 52.8642 21.4353, 52.8642 18.2595 Z M 58.649 17.2518 L 60.5833 16.964, 60.5833 21.2823, 60.5833 30.3509 C 60.4843 31.6014, 61.2221 32.1772, 62.8055 32.0782 L 63.993 32.0782 C 64.9826 32.0782, 65.5314 31.6734, 65.6304 30.8637, 65.7293 30.054, 65.8283 28.6325, 65.9273 26.6083 L 66.665 26.6083 C 66.665 28.1557, 66.7639 29.3792, 66.9619 30.2879, 67.1598 31.2055, 67.6096 31.7004, 68.3024 31.7903, 67.8076 33.1398, 66.8179 33.8056, 65.3335 33.8056 L 61.6179 33.8056 C 59.6387 33.9045, 58.649 33.0408, 58.649 31.2145 Z M 34.6012 28.4796 C 35.5908 28.3896, 37.1562 28.1287, 39.2794 27.6969, 41.4116 27.265, 44.3535 26.6173, 48.114 25.7446 L 48.258 26.3204 C 46.1888 27.0041, 43.8587 27.7958, 41.2856 28.7045, 38.7126 29.6221, 36.9853 30.5488, 36.0856 31.5024 Z M 38.0199 20.8505 C 39.1085 20.7605, 42.3202 20.3827, 47.6642 19.6989 L 47.8172 20.2747 C 45.4421 20.7605, 43.2649 21.2913, 41.2856 21.8671, 39.3064 22.4429, 37.8219 23.1176, 36.8323 23.8733 L 35.051 20.8505 C 35.9417 20.6705, 37.1742 19.7349, 38.7576 18.0525, 40.341 16.3792, 41.7265 14.7148, 42.914 13.0774, 41.4386 13.3743, 40.1521 13.6442, 39.0635 13.8781, 37.9749 14.121, 36.9313 14.5709, 35.9417 15.2366 L 34.4572 12.7895 C 35.5458 12.5106, 36.8323 11.1971, 38.3168 8.84004, 39.8012 6.49194, 40.9887 3.97289, 41.8794 1.27392 L 44.6953 3.14521 C 43.9036 3.63102, 43.013 4.59366, 42.0234 6.02411, 41.0337 7.57153, 39.3514 9.82067, 36.9763 12.7895, 39.5493 12.6096, 41.6815 12.4657, 43.3638 12.3577, 44.1555 11.3141, 44.9472 9.91963, 45.7389 8.18329 L 48.4109 10.1985 C 47.5203 10.5944, 46.2338 11.7909, 44.5514 13.7972, 42.7701 15.8214, 40.5929 18.1695, 38.0199 20.8505 Z" stroke="none" fill="#000000" />
			<path d="M 105.625 29.5853 C 105.503 29.9125, 105.289 30.0761, 104.985 30.0761, 103.863 30.0106, 102.745 29.9779, 101.633 29.9779 L 101.078 29.9779 C 99.7643 30.0004, 98.4445 30.0331, 97.1195 30.0761, 96.8169 30.0761, 96.6533 29.935, 96.6308 29.6508 L 96.6308 29.5199, 96.6983 29.2418 C 96.7883 28.883, 97.007 28.7082, 97.3546 28.7184, 97.7707 28.7194, 98.1418 28.7061, 98.4669 28.6785, 98.792 28.6519, 99.1069 28.5558, 99.4095 28.3913, 99.522 28.3381, 99.6181 28.2614, 99.6958 28.1622, 99.7408 28.0764, 99.7694 27.9884, 99.7806 27.9005 L 99.7806 27.8024, 99.3758 22.3717, 91.7624 22.3717, 89.0839 26.9518 C 88.9387 27.2145, 88.8651 27.4548, 88.8651 27.6715, 88.8651 27.8576, 88.9214 28.0273, 89.0338 28.1786, 89.2812 28.5395, 89.7413 28.7194, 90.415 28.7184, 90.7186 28.7194, 90.8812 28.8503, 90.9037 29.111, 90.9037 29.1774, 90.8924 29.248, 90.8699 29.3236 L 90.8025 29.5853 C 90.6798 29.9125, 90.46 30.0761, 90.1451 30.0761, 89.1125 30.0331, 88.0902 30.0004, 87.0791 29.9779 L 86.6252 29.9779 C 85.749 29.9779, 84.8617 30.0106, 83.963 30.0761, 83.7954 30.0761, 83.6717 30.0219, 83.5929 29.9125, 83.5255 29.8481, 83.4917 29.7714, 83.4917 29.6835, 83.4917 29.6191, 83.503 29.5536, 83.5255 29.4872 L 83.5929 29.2418 C 83.6829 28.883, 83.9017 28.7082, 84.2493 28.7184, 84.6091 28.7194, 84.9639 28.6816, 85.3115 28.6049, 85.6591 28.5293, 85.9852 28.3923, 86.2878 28.196, 86.5915 27.9997, 86.8726 27.7625, 87.1302 27.4844, 87.3889 27.2064, 87.6189 26.8925, 87.8203 26.5429 L 99.7132 6.17787 C 99.9156 5.87321, 100.173 5.726, 100.488 5.73622 L 100.808 5.73622 C 101.168 5.73724, 101.369 5.90593, 101.414 6.2433 L 102.897 27.557 C 102.919 27.8412, 102.953 28.0569, 102.998 28.2042, 103.043 28.3514, 103.122 28.4577, 103.234 28.5221, 103.392 28.6213, 103.652 28.6785, 104.017 28.6949, 104.382 28.7112, 104.795 28.7194, 105.255 28.7184, 105.57 28.7194, 105.727 28.8503, 105.727 29.111, 105.727 29.1774, 105.715 29.248, 105.693 29.3236 Z M 98.5682 10.7743 L 92.5711 21.0468, 99.2756 21.0468 Z" stroke="none" fill="#000000" />
			<path d="M 41.1585 72.2633 C 41.1248 72.4065, 41.0522 72.5291, 40.9398 72.6324, 40.8273 72.7367, 40.7036 72.7878, 40.5686 72.7868, 40.5237 72.8093, 40.4674 72.8205, 40.4 72.8195, 40.266 72.8205, 40.1986 72.8093, 40.1986 72.7868, 39.9184 72.7878, 39.7661 72.6682, 39.7436 72.4269 L 39.7436 72.3124 C 39.8111 71.8012, 39.8673 71.2829, 39.9113 70.7585, 39.9563 70.3557, 39.9788 69.9856, 39.9788 69.6461 L 39.9788 69.3681 C 39.9563 68.9326, 39.9031 68.543, 39.8193 68.1995, 39.7354 67.856, 39.5862 67.5647, 39.3725 67.3234, 38.9462 66.8224, 38.3123 66.526, 37.4699 66.4329, 36.6275 66.3409, 35.7289 66.2939, 34.774 66.2929 L 31.1529 66.2929 C 30.5579 66.2939, 30.2093 66.3379, 30.1081 66.4237, 30.0529 66.4687, 29.9404 66.7897, 29.7717 67.3888 L 27.6831 75.3712, 30.0069 75.3712 C 30.6366 75.3723, 31.2091 75.3457, 31.7254 75.2905, 32.2427 75.2363, 32.6864 75.0727, 33.0565 74.7987, 33.3939 74.5268, 33.6495 74.1455, 33.8232 73.6547, 33.997 73.164, 34.1688 72.6028, 34.3365 71.9689, 34.4602 71.6428, 34.6738 71.4843, 34.9764 71.4945 L 35.2627 71.4945 C 35.5776 71.4956, 35.734 71.6377, 35.734 71.9198 L 35.734 72.0343, 33.629 80.1313 C 33.5615 80.4707, 33.3428 80.6342, 32.9716 80.622 L 32.7028 80.622 C 32.3879 80.623, 32.2304 80.4921, 32.2304 80.2294, 32.2304 80.165, 32.2478 80.1047, 32.2816 80.0495, 32.4278 79.4402, 32.5341 78.8779, 32.6016 78.3647, 32.624 78.2348, 32.6353 78.1203, 32.6353 78.0211, 32.6353 77.7165, 32.5678 77.4711, 32.4329 77.2851, 32.2427 77.0244, 31.9023 76.869, 31.4136 76.8199, 30.9249 76.7708, 30.378 76.7463, 29.7717 76.7453 L 27.3457 76.7453, 25.0383 85.7091 C 24.9258 86.0915, 24.8696 86.3757, 24.8696 86.5597 L 24.8696 86.6252 C 24.9146 86.6701, 25.2295 86.6967, 25.8132 86.7069 L 29.6705 86.7069 C 30.6704 86.708, 31.6385 86.6405, 32.576 86.5035, 33.5145 86.3675, 34.3876 86.021, 35.1952 85.4638, 35.5551 85.2031, 35.8976 84.8545, 36.2227 84.4179, 36.5488 83.9824, 36.8576 83.4999, 37.1499 82.9703, 37.4423 82.4417, 37.7194 81.8805, 37.9831 81.2855, 38.2469 80.6915, 38.5086 80.1047, 38.7663 79.526, 38.8562 79.2653, 39.0535 79.1345, 39.3561 79.1335 L 39.6424 79.1335 C 39.9573 79.1345, 40.1137 79.2766, 40.1137 79.5587 L 40.1137 79.6896, 36.7615 87.672 C 36.6388 87.9337, 36.4363 88.0646, 36.1552 88.0646 L 18.6374 88.0646 C 18.4687 88.0646, 18.345 88.0155, 18.2663 87.9174, 18.1886 87.8417, 18.1498 87.7599, 18.1488 87.672, 18.1498 87.6076, 18.161 87.5422, 18.1825 87.4757 L 18.25 87.2304 C 18.2837 87.0893, 18.3624 86.9676, 18.4861 86.8634, 18.6098 86.7601, 18.7499 86.708, 18.9063 86.7069, 19.4349 86.708, 19.9297 86.6998, 20.3897 86.6834, 20.8498 86.6671, 21.1984 86.6098, 21.4335 86.5107, 21.6359 86.4023, 21.7924 86.1078, 21.9048 85.6273 L 26.6383 67.307 C 26.7057 67.0678, 26.7395 66.8777, 26.7395 66.7345, 26.7395 66.6047, 26.7119 66.528, 26.6546 66.5055, 26.4982 66.4084, 26.1894 66.3491, 25.7294 66.3266, 25.2693 66.3051, 24.7745 66.2939, 24.246 66.2929, 23.9321 66.2939, 23.7747 66.1467, 23.7747 65.8512 L 23.7747 65.7367, 23.8422 65.4586 C 23.9321 65.0998, 24.1509 64.9199, 24.4985 64.9189 L 41.5624 64.9189 C 41.8435 64.9199, 41.9948 65.0558, 42.0173 65.3278 L 42.0173 65.4423 Z" stroke="none" fill="#000000" />
			<path d="M 5.00698 -1.20676 C 4.93828 -0.937678, 4.79801 -0.734437, 4.58733 -0.597035, 4.37665 -0.459633, 4.16482 -0.390932, 3.9507 -0.391504, 3.73086 -0.390932, 3.54822 -0.46135, 3.40338 -0.602188, 3.2843 -0.699514, 3.22418 -0.833482, 3.22418 -1.00523, 3.22418 -1.08997, 3.23678 -1.17584, 3.26197 -1.26172, 3.31865 -1.47469, 3.41769 -1.64244, 3.5591 -1.76496, 3.70051 -1.8869, 3.79612 -1.95446, 3.8465 -1.96705, 3.70223 -2.0764, 3.40338 -2.13136, 2.95052 -2.13193, 2.47305 -2.13136, 2.0471 -1.93728, 1.67268 -1.54969, 1.29826 -1.16153, 0.96048 -0.638256, 0.658195 0.0207028 L -0.709531 5.26031 C -0.765636 5.48703, -0.880711 5.65592, -1.05361 5.7687, -1.22651 5.88206, -1.40112 5.93816, -1.57746 5.93816, -1.76581 5.93816, -1.91066 5.87748, -2.01142 5.75496, -2.09271 5.67595, -2.13393 5.56603, -2.13393 5.4252, -2.13393 5.37081, -2.12764 5.30382, -2.11504 5.22367 L -0.662585 -0.446465 C -0.561823 -0.842642, -0.511442 -1.185, -0.511442 -1.4724 L -0.511442 -1.69225 C -0.542358 -1.9848, -0.690065 -2.13136, -0.954565 -2.13193, -1.23109 -2.13136, -1.46238 -1.90808, -1.64787 -1.46267, -1.83337 -1.01668, -2.01428 -0.436732, -2.19061 0.277187, -2.25931 0.442643, -2.37553 0.527946, -2.53927 0.533672 L -2.75625 0.533672 C -2.9074 0.534244, -2.98297 0.4581, -2.98297 0.304668 L -2.98297 0.240547 C -2.9074 -0.0457082, -2.82209 -0.358871, -2.7282 -0.697797, -2.63374 -1.03672, -2.50778 -1.35733, -2.35092 -1.65961, -2.19348 -1.9619, -1.99539 -2.21838, -1.75665 -2.42907, -1.51734 -2.63975, -1.21906 -2.74509, -0.860673 -2.74566, -0.382055 -2.74509, 0.00324416 -2.60883, 0.295224 -2.33746, 0.587777 -2.06552, 0.752659 -1.79873, 0.790445 -1.53652, 1.01086 -1.82908, 1.31773 -2.10388, 1.71047 -2.36037, 2.10321 -2.61685, 2.55435 -2.74509, 3.06388 -2.74566, 3.31579 -2.74509, 3.5717 -2.71876, 3.83276 -2.66723, 4.09383 -2.61513, 4.32283 -2.52983, 4.52092 -2.41075, 4.71901 -2.29166, 4.86557 -2.13422, 4.96003 -1.93957, 5.01671 -1.81705, 5.0482 -1.67965, 5.05393 -1.52736, 5.05393 -1.43519, 5.03847 -1.32813, 5.00698 -1.20676 Z" stroke="none" fill="#000000" transform="matrix(1.12 0 0 1 46.739 87.107)" />
			<path d="M 62.0897 87.8029 C 62.0897 89.0788, 61.829 90.2841, 61.3066 91.4179, 60.7852 92.5527, 60.0522 93.5556, 59.1086 94.4276, 59.0084 94.4931, 58.8959 94.5258, 58.7712 94.5258, 58.6823 94.5258, 58.5647 94.4931, 58.4175 94.4276 L 58.3336 94.2968 C 58.2437 94.2099, 58.1987 94.1117, 58.1987 94.0023, 58.1987 93.9042, 58.2437 93.7897, 58.3336 93.6588, 59.1873 92.8737, 59.8416 91.9802, 60.2965 90.9762, 60.7515 89.9733, 60.9784 88.9152, 60.9784 87.8029, 60.9784 87.7272, 60.9733 87.6434, 60.9621 87.5504, 60.9508 87.4584, 60.9447 87.5146, 60.9447 87.7211, 60.7648 87.9286, 60.3497 88.0319, 59.6985 88.0319, 59.0472 88.0319, 58.5534 87.8315, 58.2161 87.4277, 57.8787 87.0249, 57.71 86.5771, 57.71 86.0854, 57.71 85.5957, 57.8787 85.152, 58.2161 84.7533, 58.5534 84.3556, 59.0472 84.1562, 59.6985 84.1552, 60.181 84.1562, 60.5746 84.2789, 60.8772 84.5242, 61.1808 84.7696, 61.4221 85.0671, 61.6021 85.4157, 61.782 85.7654, 61.9077 86.1518, 61.9803 86.5771, 62.0539 87.0024, 62.0897 87.4113, 62.0897 87.8029 Z" stroke="none" fill="#000000" />
			<path d="M 89.6997 72.3615 C 89.667 72.5046, 89.5964 72.6273, 89.4901 72.7305, 89.3838 72.8348, 89.2509 72.8859, 89.0934 72.8849 L 88.7734 72.8849 C 88.4586 72.8859, 88.3011 72.7551, 88.3011 72.4923 L 88.3011 72.3778 C 88.3911 71.8881, 88.4698 71.379, 88.5373 70.8494, 88.6048 70.3209, 88.661 69.8271, 88.706 69.3681 L 88.706 68.8446 C 88.706 68.5952, 88.6947 68.3662, 88.6722 68.1576, 88.6272 67.8203, 88.5485 67.5647, 88.4361 67.3888, 88.1335 66.9973, 87.7092 66.7335, 87.1643 66.5965, 86.6204 66.4605, 86.0111 66.392, 85.3374 66.391 L 83.4675 66.391 C 82.9062 66.392, 82.5576 66.4248, 82.4227 66.4892, 82.3225 66.5883, 82.21 66.9155, 82.0863 67.4706 L 77.3866 85.6928 C 77.3416 85.8574, 77.3192 85.9882, 77.3192 86.0854, 77.3192 86.3041, 77.3866 86.435, 77.5206 86.4779, 77.8354 86.5771, 78.3415 86.6405, 79.0377 86.6671, 79.7339 86.6947, 80.4301 86.708, 81.1253 86.7069, 81.4402 86.708, 81.5976 86.8388, 81.5976 87.0995, 81.5976 87.166, 81.5864 87.2365, 81.5639 87.3122 L 81.4964 87.5575 C 81.429 87.8969, 81.2102 88.0646, 80.8391 88.0646, 78.9978 87.9992, 77.1392 87.9665, 75.2643 87.9665, 73.3995 87.9665, 71.5245 87.9992, 69.6373 88.0646, 69.4696 88.0646, 69.3459 88.0155, 69.2672 87.9174, 69.1895 87.8417, 69.1496 87.7599, 69.1496 87.672, 69.1496 87.6076, 69.1609 87.5422, 69.1834 87.4757 L 69.2498 87.2304 C 69.2846 87.0893, 69.3633 86.9676, 69.486 86.8634, 69.6097 86.7601, 69.7498 86.708, 69.9072 86.7069, 70.5922 86.708, 71.2945 86.6947, 72.0132 86.6671, 72.7319 86.6405, 73.2564 86.5771, 73.5876 86.479, 73.9189 86.3808, 74.1407 86.0976, 74.2532 85.6273 L 78.9529 67.3888 C 79.0653 67.0085, 79.1215 66.7192, 79.1215 66.5219 L 79.1215 66.4565 C 79.0766 66.4135, 78.7678 66.392, 78.1953 66.391 L 76.3254 66.391 C 75.6517 66.392, 74.9944 66.4636, 74.3544 66.6047, 73.7144 66.7468, 73.1419 67.0187, 72.6358 67.4215, 72.4007 67.6076, 72.1758 67.8755, 71.9621 68.2241, 71.7495 68.5737, 71.5388 68.9745, 71.3313 69.4263, 71.1238 69.8792, 70.9244 70.3618, 70.7332 70.874, 70.5421 71.3872, 70.3509 71.8994, 70.1597 72.4106, 70.0473 72.7387, 69.8397 72.8972, 69.5371 72.8849 L 69.2498 72.8849 C 69.0822 72.8859, 68.9585 72.8318, 68.8797 72.7213, 68.8123 72.6569, 68.7785 72.5803, 68.7785 72.4923, 68.7785 72.4279, 68.7959 72.3625, 68.8297 72.2961, 69.122 71.196, 69.487 70.0725, 69.9246 68.9274, 70.3621 67.7824, 70.7782 66.6425, 71.1708 65.5077, 71.2833 65.1816, 71.4969 65.018, 71.8108 65.017 L 90.3734 65.017 C 90.6883 65.018, 90.8447 65.154, 90.8447 65.4259 L 90.8447 65.5404 Z" stroke="none" fill="#000000" />
			<path d="M 2.77742 16.2002 C -8.14358 8.91013, -8.14358 -8.91013, 2.77742 -16.2002 L 4.49262 -16.2002 C -5.35638 -8.91013, -5.35638 8.91013, 4.49262 16.2002" stroke="none" fill="#000000" transform="matrix(1 0 -0 1 11.9477 78.0018)" />
			<path d="M 2.77742 16.2002 C -8.14358 8.91013, -8.14358 -8.91013, 2.77742 -16.2002 L 4.49262 -16.2002 C -5.35638 -8.91013, -5.35638 8.91013, 4.49262 16.2002" stroke="none" fill="#000000" transform="matrix(-1 1.50996e-007 -1.50996e-007 -1 95.5138 78.0018)" />
			<rect />
		</svg>
	</g>
</svg>
