<?xml version="1.0"?>
<svg xmlns="http://www.w3.org/2000/svg" xmlns:xlink="http://www.w3.org/1999/xlink" width="277.675476" height="97.2281418">
	<defs />
	<rect x="-651.315796" y="-194.737152" width="1302.63159" height="389.474304" stroke="none" fill="#BB6E24" fill-opacity="0.392156839" transform="matrix(0.2 0 0 0.2 136.579 49.7808)" />
	<path d="M -651.316 -194.737 L 651.316 -194.737, 651.316 194.737, -651.316 194.737 Z" fill="none" stroke="#000000" stroke-width="13.333334" stroke-linecap="round" stroke-linejoin="round" transform="matrix(0.2 0 0 0.2 136.579 49.7808)" />
	<path d="M 0 0 L 0 389.474" fill="none" stroke="#000000" stroke-width="5" stroke-linecap="round" stroke-linejoin="round" transform="matrix(0.2 0 0 0.2 136.374 10.8333)" />
	<g transform="matrix(1 0 -0 1 39.4484 29.355)">
		<svg width="215.985992" height="122.888336">
			<defs />
			<path d="M 36.3745 13.0175 C 36.3206 13.1615, 36.2266 13.2335, 36.093 13.2335, 35.599 13.2047, 35.1069 13.1903, 34.6175 13.1903 L 34.3728 13.1903 C 33.7948 13.2002, 33.2141 13.2146, 32.6311 13.2335, 32.4979 13.2335, 32.4259 13.1714, 32.4161 13.0463 L 32.4161 12.9888, 32.4457 12.8664 C 32.4853 12.7085, 32.5816 12.6316, 32.7345 12.6361, 32.9176 12.6365, 33.0809 12.6307, 33.2239 12.6185, 33.3674 12.6069, 33.506 12.5646, 33.6391 12.4921, 33.6886 12.4688, 33.7309 12.435, 33.7651 12.3914, 33.7849 12.3536, 33.7975 12.3149, 33.802 12.2762 L 33.802 12.233, 33.6243 9.84355, 30.2735 9.84355, 29.095 11.8588 C 29.0306 11.9744, 28.9983 12.0801, 28.9983 12.1755, 28.9983 12.2573, 29.023 12.332, 29.0725 12.3986, 29.1813 12.5574, 29.3842 12.6365, 29.6802 12.6361, 29.8138 12.6365, 29.8853 12.6941, 29.8952 12.8088, 29.8952 12.8381, 29.8903 12.8691, 29.8804 12.9024 L 29.8511 13.0175 C 29.7967 13.1615, 29.7004 13.2335, 29.5619 13.2335, 29.1076 13.2146, 28.6577 13.2002, 28.2124 13.1903 L 28.0127 13.1903 C 27.6272 13.1903, 27.2367 13.2047, 26.8413 13.2335, 26.7671 13.2335, 26.7127 13.2096, 26.678 13.1615, 26.6483 13.1332, 26.6335 13.0994, 26.6335 13.0607, 26.6335 13.0324, 26.6384 13.0036, 26.6483 12.9744 L 26.678 12.8664 C 26.7176 12.7085, 26.8143 12.6316, 26.9673 12.6361, 27.1256 12.6365, 27.2813 12.6199, 27.4342 12.5862, 27.5876 12.5529, 27.7311 12.4926, 27.8642 12.4062, 27.9978 12.3199, 28.1215 12.2155, 28.2349 12.0931, 28.3487 11.9708, 28.4499 11.8327, 28.539 11.6789 L 33.7723 2.71826 C 33.8614 2.58421, 33.9752 2.51944, 34.1137 2.52393 L 34.2545 2.52393 C 34.4128 2.52438, 34.5015 2.59861, 34.5213 2.74705 L 35.1735 12.1251 C 35.1834 12.2501, 35.1982 12.3451, 35.218 12.4098, 35.2378 12.4746, 35.2725 12.5214, 35.3219 12.5497, 35.3912 12.5934, 35.5059 12.6185, 35.6665 12.6257, 35.8276 12.6329, 36.0088 12.6365, 36.2113 12.6361, 36.3498 12.6365, 36.4191 12.6941, 36.4191 12.8088, 36.4191 12.8381, 36.4141 12.8691, 36.4042 12.9024 Z M 33.2685 4.74069 L 30.6293 9.26058, 33.5798 9.26058 Z" stroke="none" fill="#000000" />
			<path d="M 1.86776 2.51203 C 1.35866 2.49591, 0.863162 2.48785, 0.381521 2.48785, -0.0998681 2.48785, -0.595364 2.49591, -1.10471 2.51203 L -1.10471 2.16541, -0.818047 2.16541 C -0.726858 2.16566, -0.640959 2.1644, -0.560853 2.16163, -0.480495 2.15911, -0.40442 2.15231, -0.332376 2.14148, -0.260331 2.1309, -0.198111 2.12007, -0.145715 2.10898, -0.10138 2.10117, -0.0646015 2.07649, -0.0356325 2.03467, -0.00641155 1.99311, 0.00794697 1.94676, 0.00794697 1.89537 L 0.00794697 -2.64697 C -0.130349 -2.57946, -0.300636 -2.52832, -0.502663 -2.49356, -0.70469 -2.45855, -0.926114 -2.44116, -1.16693 -2.44142 L -1.16693 -2.78401 C -0.834673 -2.78375, -0.528105 -2.8233, -0.247232 -2.90265, 0.0336412 -2.98175, 0.276477 -3.13037, 0.481275 -3.34827 L 0.609998 -3.34827 C 0.701188 -3.34802, 0.746782 -3.30368, 0.746782 -3.21527 L 0.746782 1.89537 C 0.746782 1.94928, 0.760637 1.99638, 0.788347 2.03669, 0.816056 2.07699, 0.856361 2.10117, 0.908757 2.10898, 0.953092 2.12007, 1.01002 2.1309, 1.07904 2.14148, 1.14832 2.15231, 1.22641 2.15911, 1.31357 2.16163, 1.40073 2.1644, 1.48587 2.16566, 1.56875 2.16541 L 1.86776 2.16541, 1.86776 2.51203 Z" stroke="none" fill="#000000" transform="matrix(1.12 0 0 1 38.3539 12.8121)" />
			<path d="M 17.0608 28.9936 C 17.0464 29.0566, 17.0131 29.1092, 16.9609 29.1524, 16.9092 29.1956, 16.8462 29.2172, 16.772 29.2167, 16.5943 29.2172, 16.4216 29.2307, 16.2534 29.2568, 16.0851 29.2833, 15.9295 29.3467, 15.786 29.447, 15.6677 29.5195, 15.5741 29.6144, 15.5048 29.7318, 15.4356 29.8496, 15.3838 29.9751, 15.3487 30.1092 L 13.1626 38.6235 C 13.1086 38.7675, 13.0119 38.8395, 12.8733 38.8395 L 12.7029 38.8395 C 12.6142 38.8395, 12.5477 38.8012, 12.5027 38.7243, 11.9444 37.2183, 11.3898 35.7154, 10.8388 34.2157, 10.2882 32.7164, 9.76052 31.2994, 9.25671 29.9652 L 7.34449 37.4 C 7.3148 37.4819, 7.29995 37.5637, 7.29995 37.6447, 7.29995 37.6789, 7.3049 37.7149, 7.3148 37.7527, 7.32964 37.8683, 7.37418 37.9596, 7.44795 38.0262, 7.53701 38.113, 7.65577 38.1706, 7.80376 38.1994, 7.95221 38.2281, 8.11999 38.2425, 8.30802 38.2421, 8.44657 38.2425, 8.51539 38.3001, 8.51539 38.4148, 8.51539 38.4441, 8.51044 38.4751, 8.50055 38.5084 L 8.47086 38.6163 C 8.45646 38.6838, 8.42048 38.7378, 8.3638 38.7783, 8.30712 38.8192, 8.2464 38.8395, 8.18207 38.8395, 7.68816 38.8107, 7.1866 38.7963, 6.67739 38.7963, 6.17358 38.7963, 5.66438 38.8107, 5.15067 38.8395, 5.07645 38.8395, 5.02202 38.8179, 4.98738 38.7747, 4.9532 38.7414, 4.9361 38.7054, 4.93565 38.6667, 4.9361 38.6384, 4.94105 38.6096, 4.9505 38.5804 L 4.98019 38.4724 C 4.99503 38.4103, 5.02967 38.3568, 5.0841 38.3109, 5.13853 38.2655, 5.20015 38.2425, 5.26898 38.2421, 5.45701 38.2425, 5.63244 38.2281, 5.79528 38.1994, 5.95856 38.1706, 6.11421 38.1107, 6.2622 38.019, 6.37601 37.9474, 6.46732 37.853, 6.53659 37.7351, 6.60587 37.6177, 6.65985 37.4918, 6.69943 37.3568 L 8.77494 29.2887 C 8.69128 29.2604, 8.53923 29.2415, 8.31927 29.2316, 8.0993 29.2221, 7.86584 29.2172, 7.61843 29.2167, 7.54466 29.2172, 7.49023 29.1933, 7.4556 29.1447, 7.42591 29.1164, 7.41106 29.0804, 7.41106 29.0368, 7.41106 29.0084, 7.41871 28.9819, 7.4331 28.9576 L 7.4556 28.8425 C 7.51003 28.699, 7.60629 28.627, 7.74439 28.6265 L 10.0646 28.6265 C 10.1586 28.627, 10.2202 28.6652, 10.2495 28.7417 L 13.0735 36.3564, 14.6965 30.066 C 14.7262 29.9801, 14.741 29.8937, 14.741 29.8069, 14.741 29.6585, 14.6942 29.5361, 14.6002 29.4398, 14.4968 29.3395, 14.3744 29.2774, 14.2336 29.2532, 14.0928 29.2293, 13.9286 29.2172, 13.7406 29.2167, 13.6668 29.2172, 13.6124 29.1956, 13.5773 29.1519, 13.5431 29.1187, 13.5256 29.0804, 13.5256 29.0368, 13.5256 29.0084, 13.5332 28.9819, 13.5481 28.9576 L 13.5701 28.8425 C 13.6246 28.699, 13.7208 28.627, 13.8594 28.6265, 14.3632 28.6463, 14.8697 28.6558, 15.3784 28.6553, 15.8827 28.6558, 16.3892 28.6463, 16.898 28.6265, 16.9672 28.627, 17.0266 28.6508, 17.0756 28.6985, 17.0954 28.7372, 17.1053 28.7732, 17.1053 28.8065, 17.1053 28.8357, 17.0981 28.8623, 17.0833 28.8856 Z" stroke="none" fill="#000000" />
			<path d="M 1.86776 2.51203 C 1.35866 2.49591, 0.863162 2.48785, 0.381521 2.48785, -0.0998681 2.48785, -0.595364 2.49591, -1.10471 2.51203 L -1.10471 2.16541, -0.818047 2.16541 C -0.726858 2.16566, -0.640959 2.1644, -0.560853 2.16163, -0.480495 2.15911, -0.40442 2.15231, -0.332376 2.14148, -0.260331 2.1309, -0.198111 2.12007, -0.145715 2.10898, -0.10138 2.10117, -0.0646015 2.07649, -0.0356325 2.03467, -0.00641155 1.99311, 0.00794697 1.94676, 0.00794697 1.89537 L 0.00794697 -2.64697 C -0.130349 -2.57946, -0.300636 -2.52832, -0.502663 -2.49356, -0.70469 -2.45855, -0.926114 -2.44116, -1.16693 -2.44142 L -1.16693 -2.78401 C -0.834673 -2.78375, -0.528105 -2.8233, -0.247232 -2.90265, 0.0336412 -2.98175, 0.276477 -3.13037, 0.481275 -3.34827 L 0.609998 -3.34827 C 0.701188 -3.34802, 0.746782 -3.30368, 0.746782 -3.21527 L 0.746782 1.89537 C 0.746782 1.94928, 0.760637 1.99638, 0.788347 2.03669, 0.816056 2.07699, 0.856361 2.10117, 0.908757 2.10898, 0.953092 2.12007, 1.01002 2.1309, 1.07904 2.14148, 1.14832 2.15231, 1.22641 2.15911, 1.31357 2.16163, 1.40073 2.1644, 1.48587 2.16566, 1.56875 2.16541 L 1.86776 2.16541, 1.86776 2.51203 Z" stroke="none" fill="#000000" transform="matrix(1.12 0 0 1 18.3058 38.4181)" />
			<path d="M 24.6423 38.7243 C 24.6423 39.2857, 24.5276 39.816, 24.2977 40.3149, 24.0683 40.8142, 23.7458 41.2555, 23.3306 41.6392, 23.2865 41.668, 23.237 41.6824, 23.1821 41.6824, 23.143 41.6824, 23.0913 41.668, 23.0265 41.6392 L 22.9896 41.5816 C 22.95 41.5434, 22.9302 41.5002, 22.9302 41.4521, 22.9302 41.4089, 22.95 41.3585, 22.9896 41.3009, 23.3652 40.9555, 23.6531 40.5623, 23.8533 40.1206, 24.0535 39.6793, 24.1533 39.2137, 24.1533 38.7243, 24.1533 38.691, 24.1511 38.6541, 24.1461 38.6132, 24.1412 38.5727, 24.1385 38.5975, 24.1385 38.6883, 24.0593 38.7796, 23.8767 38.8251, 23.5901 38.8251, 23.3036 38.8251, 23.0863 38.7369, 22.9379 38.5592, 22.7894 38.382, 22.7152 38.185, 22.7152 37.9686, 22.7152 37.7531, 22.7894 37.5579, 22.9379 37.3825, 23.0863 37.2075, 23.3036 37.1198, 23.5901 37.1193, 23.8025 37.1198, 23.9756 37.1737, 24.1088 37.2817, 24.2424 37.3897, 24.3485 37.5206, 24.4277 37.674, 24.5069 37.8278, 24.5622 37.9978, 24.5942 38.185, 24.6265 38.3721, 24.6423 38.552, 24.6423 38.7243 Z" stroke="none" fill="#000000" />
			<path d="M 37.7966 29.0008 C 37.7674 29.1452, 37.6783 29.2172, 37.5298 29.2167, 37.372 29.2172, 37.2213 29.2352, 37.0778 29.2711, 36.9347 29.3071, 36.7948 29.3683, 36.659 29.4547, 36.5231 29.541, 36.3985 29.6454, 36.2847 29.7678, 36.1714 29.8901, 36.0675 30.0282, 35.9734 30.1812 L 30.5705 38.969 C 30.4968 39.1035, 30.383 39.1683, 30.2296 39.1633 L 30.0888 39.1633 C 29.9061 39.1633, 29.8171 39.0869, 29.822 38.933 L 28.8954 29.7421 C 28.8756 29.618, 28.8558 29.5208, 28.836 29.4511, 28.8162 29.3818, 28.787 29.3323, 28.7474 29.3031, 28.6781 29.2653, 28.5683 29.2415, 28.4177 29.2316, 28.267 29.2221, 28.0951 29.2172, 27.9022 29.2167, 27.8284 29.2172, 27.774 29.1933, 27.7393 29.1447, 27.7096 29.1164, 27.6948 29.0804, 27.6948 29.0368, 27.6948 29.0084, 27.7024 28.9819, 27.7168 28.9576 L 27.7393 28.8497 C 27.7542 28.7876, 27.7874 28.735, 27.8392 28.6918, 27.8914 28.6486, 27.9543 28.627, 28.0281 28.6265, 28.5027 28.6558, 28.9822 28.6702, 29.4662 28.6697, 29.5404 28.6702, 29.6196 28.6652, 29.7033 28.6553, 30.2764 28.6558, 30.8499 28.6463, 31.423 28.6265, 31.4922 28.627, 31.5539 28.6508, 31.6083 28.6985, 31.6281 28.7372, 31.6375 28.7732, 31.6375 28.8065, 31.6375 28.8357, 31.6303 28.8623, 31.6155 28.8856 L 31.5935 28.9936 C 31.5786 29.0611, 31.5426 29.1155, 31.4859 29.156, 31.4293 29.1969, 31.3685 29.2172, 31.3042 29.2167, 31.1315 29.2172, 30.9731 29.2244, 30.8301 29.2388, 30.687 29.2532, 30.5458 29.2914, 30.4073 29.3535, 30.3236 29.3971, 30.284 29.4691, 30.2889 29.5694 L 30.2889 29.6198 C 30.4617 30.8964, 30.6002 32.1788, 30.7037 33.4672, 30.8076 34.7555, 30.9187 35.9754, 31.0375 37.1265 L 35.4102 30.0084 C 35.4746 29.9081, 35.5142 29.8024, 35.529 29.6917 L 35.529 29.6558 C 35.529 29.5842, 35.5119 29.5195, 35.4768 29.4614, 35.3684 29.2986, 35.166 29.2172, 34.8691 29.2167, 34.7409 29.2172, 34.6766 29.1524, 34.6766 29.0224 L 34.6766 28.972, 34.7063 28.8425 C 34.7607 28.699, 34.857 28.627, 34.9951 28.6265, 35.43 28.6463, 35.8673 28.6558, 36.3072 28.6553, 36.3666 28.6652, 36.4233 28.6702, 36.4777 28.6697, 36.8533 28.6702, 37.2388 28.6558, 37.6338 28.6265, 37.7674 28.627, 37.8389 28.6918, 37.8488 28.8209 L 37.8488 28.8784 Z" stroke="none" fill="#000000" />
			<path d="M 1.86776 2.51203 C 1.35866 2.49591, 0.863162 2.48785, 0.381521 2.48785, -0.0998681 2.48785, -0.595364 2.49591, -1.10471 2.51203 L -1.10471 2.16541, -0.818047 2.16541 C -0.726858 2.16566, -0.640959 2.1644, -0.560853 2.16163, -0.480495 2.15911, -0.40442 2.15231, -0.332376 2.14148, -0.260331 2.1309, -0.198111 2.12007, -0.145715 2.10898, -0.10138 2.10117, -0.0646015 2.07649, -0.0356325 2.03467, -0.00641155 1.99311, 0.00794697 1.94676, 0.00794697 1.89537 L 0.00794697 -2.64697 C -0.130349 -2.57946, -0.300636 -2.52832, -0.502663 -2.49356, -0.70469 -2.45855, -0.926114 -2.44116, -1.16693 -2.44142 L -1.16693 -2.78401 C -0.834673 -2.78375, -0.528105 -2.8233, -0.247232 -2.90265, 0.0336412 -2.98175, 0.276477 -3.13037, 0.481275 -3.34827 L 0.609998 -3.34827 C 0.701188 -3.34802, 0.746782 -3.30368, 0.746782 -3.21527 L 0.746782 1.89537 C 0.746782 1.94928, 0.760637 1.99638, 0.788347 2.03669, 0.816056 2.07699, 0.856361 2.10117, 0.908757 2.10898, 0.953092 2.12007, 1.01002 2.1309, 1.07904 2.14148, 1.14832 2.15231, 1.22641 2.15911, 1.31357 2.16163, 1.40073 2.1644, 1.48587 2.16566, 1.56875 2.16541 L 1.86776 2.16541, 1.86776 2.51203 Z" stroke="none" fill="#000000" transform="matrix(1.12 0 0 1 38.4079 38.4181)" />
			<path d="M 44.7444 38.7243 C 44.7444 39.2857, 44.6297 39.816, 44.3998 40.3149, 44.1704 40.8142, 43.8479 41.2555, 43.4327 41.6392, 43.3886 41.668, 43.3391 41.6824, 43.2843 41.6824, 43.2451 41.6824, 43.1934 41.668, 43.1286 41.6392 L 43.0917 41.5816 C 43.0522 41.5434, 43.0324 41.5002, 43.0324 41.4521, 43.0324 41.4089, 43.0522 41.3585, 43.0917 41.3009, 43.4674 40.9555, 43.7552 40.5623, 43.9554 40.1206, 44.1556 39.6793, 44.2554 39.2137, 44.2554 38.7243, 44.2554 38.691, 44.2532 38.6541, 44.2483 38.6132, 44.2433 38.5727, 44.2406 38.5975, 44.2406 38.6883, 44.1614 38.7796, 43.9788 38.8251, 43.6923 38.8251, 43.4057 38.8251, 43.1885 38.7369, 43.04 38.5592, 42.8916 38.382, 42.8173 38.185, 42.8173 37.9686, 42.8173 37.7531, 42.8916 37.5579, 43.04 37.3825, 43.1885 37.2075, 43.4057 37.1198, 43.6923 37.1193, 43.9046 37.1198, 44.0778 37.1737, 44.2109 37.2817, 44.3445 37.3897, 44.4507 37.5206, 44.5298 37.674, 44.609 37.8278, 44.6643 37.9978, 44.6963 38.185, 44.7287 38.3721, 44.7444 38.552, 44.7444 38.7243 Z" stroke="none" fill="#000000" />
			<path d="M 57.6351 31.8869 C 57.6203 31.9499, 57.5883 32.0039, 57.5389 32.0493, 57.4894 32.0952, 57.435 32.1177, 57.3756 32.1172, 57.3558 32.1271, 57.331 32.1321, 57.3014 32.1316, 57.2424 32.1321, 57.2127 32.1271, 57.2127 32.1172, 57.0895 32.1177, 57.0225 32.065, 57.0126 31.9589 L 57.0126 31.9085 C 57.0423 31.6836, 57.067 31.4555, 57.0863 31.2248, 57.1061 31.0475, 57.116 30.8847, 57.116 30.7353 L 57.116 30.613 C 57.1061 30.4214, 57.0827 30.25, 57.0459 30.0988, 57.009 29.9477, 56.9433 29.8195, 56.8493 29.7133, 56.6617 29.4929, 56.3828 29.3625, 56.0121 29.3215, 55.6415 29.281, 55.2461 29.2604, 54.8259 29.2599 L 53.2327 29.2599 C 52.9709 29.2604, 52.8175 29.2797, 52.7729 29.3175, 52.7486 29.3373, 52.6992 29.4785, 52.6249 29.7421 L 51.7059 33.2544, 52.7284 33.2544 C 53.0055 33.2548, 53.2574 33.2431, 53.4846 33.2188, 53.7122 33.195, 53.9074 33.123, 54.0702 33.0025, 54.2187 32.8828, 54.3311 32.715, 54.4076 32.4991, 54.4841 32.2832, 54.5597 32.0362, 54.6334 31.7574, 54.6879 31.6139, 54.7819 31.5441, 54.915 31.5486 L 55.041 31.5486 C 55.1795 31.5491, 55.2483 31.6116, 55.2483 31.7358 L 55.2483 31.7861, 54.3221 35.3488 C 54.2924 35.4981, 54.1962 35.5701, 54.0329 35.5647 L 53.9146 35.5647 C 53.776 35.5652, 53.7068 35.5076, 53.7068 35.392, 53.7068 35.3636, 53.7144 35.3371, 53.7293 35.3128, 53.7936 35.0447, 53.8404 34.7973, 53.8701 34.5715, 53.88 34.5144, 53.8849 34.464, 53.8849 34.4203, 53.8849 34.2863, 53.8552 34.1783, 53.7958 34.0965, 53.7122 33.9818, 53.5624 33.9134, 53.3474 33.8918, 53.1323 33.8702, 52.8917 33.8594, 52.6249 33.859 L 51.5575 33.859, 50.5422 37.8031 C 50.4927 37.9713, 50.468 38.0963, 50.468 38.1773 L 50.468 38.2061 C 50.4878 38.2259, 50.6263 38.2376, 50.8832 38.2421 L 52.5804 38.2421 C 53.0203 38.2425, 53.4463 38.2128, 53.8588 38.1526, 54.2718 38.0927, 54.6559 37.9403, 55.0113 37.6951, 55.1696 37.5804, 55.3203 37.427, 55.4634 37.2349, 55.6069 37.0433, 55.7427 36.831, 55.8714 36.598, 56 36.3654, 56.1219 36.1184, 56.238 35.8566, 56.354 35.5953, 56.4692 35.3371, 56.5825 35.0825, 56.6221 34.9678, 56.7089 34.9102, 56.8421 34.9098 L 56.968 34.9098 C 57.1066 34.9102, 57.1754 34.9727, 57.1754 35.0969 L 57.1754 35.1545, 55.7004 38.6667 C 55.6464 38.7819, 55.5574 38.8395, 55.4337 38.8395 L 47.7258 38.8395 C 47.6516 38.8395, 47.5972 38.8179, 47.5626 38.7747, 47.5284 38.7414, 47.5113 38.7054, 47.5108 38.6667, 47.5113 38.6384, 47.5162 38.6096, 47.5257 38.5804 L 47.5554 38.4724 C 47.5702 38.4103, 47.6048 38.3568, 47.6593 38.3109, 47.7137 38.2655, 47.7753 38.2425, 47.8442 38.2421, 48.0767 38.2425, 48.2944 38.2389, 48.4969 38.2317, 48.6993 38.2245, 48.8527 38.1994, 48.9561 38.1557, 49.0452 38.108, 49.114 37.9785, 49.1635 37.7671 L 51.2462 29.7061 C 51.2759 29.6009, 51.2907 29.5172, 51.2907 29.4542, 51.2907 29.3971, 51.2786 29.3634, 51.2534 29.3535, 51.1846 29.3107, 51.0487 29.2846, 50.8463 29.2747, 50.6439 29.2653, 50.4262 29.2604, 50.1936 29.2599, 50.0555 29.2604, 49.9862 29.1956, 49.9862 29.0656 L 49.9862 29.0152, 50.0159 28.8928 C 50.0555 28.735, 50.1518 28.6558, 50.3047 28.6553 L 57.8128 28.6553 C 57.9365 28.6558, 58.0031 28.7156, 58.013 28.8353 L 58.013 28.8856 Z" stroke="none" fill="#000000" />
			<path d="M 1.86776 2.51203 C 1.35866 2.49591, 0.863162 2.48785, 0.381521 2.48785, -0.0998681 2.48785, -0.595364 2.49591, -1.10471 2.51203 L -1.10471 2.16541, -0.818047 2.16541 C -0.726858 2.16566, -0.640959 2.1644, -0.560853 2.16163, -0.480495 2.15911, -0.40442 2.15231, -0.332376 2.14148, -0.260331 2.1309, -0.198111 2.12007, -0.145715 2.10898, -0.10138 2.10117, -0.0646015 2.07649, -0.0356325 2.03467, -0.00641155 1.99311, 0.00794697 1.94676, 0.00794697 1.89537 L 0.00794697 -2.64697 C -0.130349 -2.57946, -0.300636 -2.52832, -0.502663 -2.49356, -0.70469 -2.45855, -0.926114 -2.44116, -1.16693 -2.44142 L -1.16693 -2.78401 C -0.834673 -2.78375, -0.528105 -2.8233, -0.247232 -2.90265, 0.0336412 -2.98175, 0.276477 -3.13037, 0.481275 -3.34827 L 0.609998 -3.34827 C 0.701188 -3.34802, 0.746782 -3.30368, 0.746782 -3.21527 L 0.746782 1.89537 C 0.746782 1.94928, 0.760637 1.99638, 0.788347 2.03669, 0.816056 2.07699, 0.856361 2.10117, 0.908757 2.10898, 0.953092 2.12007, 1.01002 2.1309, 1.07904 2.14148, 1.14832 2.15231, 1.22641 2.15911, 1.31357 2.16163, 1.40073 2.1644, 1.48587 2.16566, 1.56875 2.16541 L 1.86776 2.16541, 1.86776 2.51203 Z" stroke="none" fill="#000000" transform="matrix(1.12 0 0 1 60.049 38.4181)" />
			<path d="M 1.22206 7.1281 C -3.58318 3.92045, -3.58318 -3.92045, 1.22206 -7.1281 L 1.97675 -7.1281 C -2.35681 -3.92045, -2.35681 3.92045, 1.97675 7.1281" stroke="none" fill="#000000" transform="matrix(1 0 -0 1 2.211 34.4118)" />
			<path d="M 1.22206 7.1281 C -3.58318 3.92045, -3.58318 -3.92045, 1.22206 -7.1281 L 1.97675 -7.1281 C -2.35681 -3.92045, -2.35681 3.92045, 1.97675 7.1281" stroke="none" fill="#000000" transform="matrix(-1 1.50996e-007 -1.50996e-007 -1 64.6817 34.4118)" />
			<rect />
		</svg>
	</g>
	<g transform="matrix(1 0 -0 1 170.002 29.355)">
		<svg width="222.013885" height="122.888336">
			<defs />
			<path d="M 37.0579 13.0175 C 37.0039 13.1615, 36.9099 13.2335, 36.7763 13.2335, 36.2824 13.2047, 35.7903 13.1903, 35.3008 13.1903 L 35.0561 13.1903 C 34.4781 13.2002, 33.8974 13.2146, 33.3144 13.2335, 33.1812 13.2335, 33.1093 13.1714, 33.0994 13.0463 L 33.0994 12.9888, 33.1291 12.8664 C 33.1687 12.7085, 33.2649 12.6316, 33.4179 12.6361, 33.6009 12.6365, 33.7642 12.6307, 33.9073 12.6185, 34.0508 12.6069, 34.1893 12.5646, 34.3225 12.4921, 34.3719 12.4688, 34.4142 12.435, 34.4484 12.3914, 34.4682 12.3536, 34.4808 12.3149, 34.4853 12.2762 L 34.4853 12.233, 34.3076 9.84355, 30.9568 9.84355, 29.7783 11.8588 C 29.714 11.9744, 29.6816 12.0801, 29.6816 12.1755, 29.6816 12.2573, 29.7063 12.332, 29.7558 12.3986, 29.8647 12.5574, 30.0675 12.6365, 30.3635 12.6361, 30.4971 12.6365, 30.5686 12.6941, 30.5785 12.8088, 30.5785 12.8381, 30.5736 12.8691, 30.5637 12.9024 L 30.5345 13.0175 C 30.48 13.1615, 30.3838 13.2335, 30.2452 13.2335, 29.7909 13.2146, 29.3411 13.2002, 28.8957 13.1903 L 28.696 13.1903 C 28.3105 13.1903, 27.92 13.2047, 27.5246 13.2335, 27.4504 13.2335, 27.396 13.2096, 27.3614 13.1615, 27.3317 13.1332, 27.3168 13.0994, 27.3168 13.0607, 27.3168 13.0324, 27.3218 13.0036, 27.3317 12.9744 L 27.3614 12.8664 C 27.4009 12.7085, 27.4977 12.6316, 27.6506 12.6361, 27.8089 12.6365, 27.9646 12.6199, 28.1175 12.5862, 28.2709 12.5529, 28.4144 12.4926, 28.5476 12.4062, 28.6812 12.3199, 28.8049 12.2155, 28.9182 12.0931, 29.032 11.9708, 29.1332 11.8327, 29.2223 11.6789 L 34.4556 2.71826 C 34.5447 2.58421, 34.6585 2.51944, 34.797 2.52393 L 34.9378 2.52393 C 35.0962 2.52438, 35.1848 2.59861, 35.2046 2.74705 L 35.8568 12.1251 C 35.8667 12.2501, 35.8816 12.3451, 35.9014 12.4098, 35.9212 12.4746, 35.9558 12.5214, 36.0053 12.5497, 36.0746 12.5934, 36.1893 12.6185, 36.3498 12.6257, 36.5109 12.6329, 36.6922 12.6365, 36.8946 12.6361, 37.0331 12.6365, 37.1024 12.6941, 37.1024 12.8088, 37.1024 12.8381, 37.0975 12.8691, 37.0876 12.9024 Z M 33.9518 4.74069 L 31.3127 9.26058, 34.2631 9.26058 Z" stroke="none" fill="#000000" />
			<path d="M 1.87885 2.51203 L -1.50019 2.51203, -1.50019 2.29035 C -1.50019 2.27448, -1.49188 2.2503, -1.47526 2.21781 L -0.117743 0.742655 C 0.0427202 0.565566, 0.205198 0.384195, 0.369944 0.198793, 0.534689 0.0133917, 0.682305 -0.17604, 0.812288 -0.369503, 0.94227 -0.562965, 1.04606 -0.762474, 1.12364 -0.968027, 1.20123 -1.17358, 1.23977 -1.38921, 1.23977 -1.61517, 1.23977 -1.80561, 1.21483 -1.98371, 1.16495 -2.14895, 1.11508 -2.3142, 1.04328 -2.4593, 0.949072 -2.58425, 0.855112 -2.70919, 0.737472 -2.80995, 0.596406 -2.88653, 0.455339 -2.96311, 0.291853 -3.0014, 0.106452 -3.00165, -0.170139 -3.0014, -0.414486 -2.91877, -0.626338 -2.75353, -0.837937 -2.58828, -0.9785 -2.40615, -1.04777 -2.20765, -1.06138 -2.20211, -1.03921 -2.19934, -0.981271 -2.19959 L -0.910738 -2.19959 C -0.827609 -2.18044, -0.755816 -2.15147, -0.694856 -2.11268, -0.633895 -2.07364, -0.582758 -2.01998, -0.541194 -1.95146, -0.49963 -1.88294, -0.478974 -1.80032, -0.478974 -1.70384, -0.478974 -1.54237, -0.53137 -1.41868, -0.636666 -1.33278, -0.741962 -1.24663, -0.859601 -1.20381, -0.989584 -1.20406, -1.11402 -1.20381, -1.2304 -1.24663, -1.33822 -1.33278, -1.44603 -1.41868, -1.50019 -1.54237, -1.50019 -1.70384, -1.50019 -1.92929, -1.45586 -2.14291, -1.36719 -2.34443, -1.27852 -2.54596, -1.15836 -2.72053, -1.00621 -2.86839, -0.854059 -3.01601, -0.674199 -3.13289, -0.46663 -3.21904, -0.259061 -3.30494, -0.0388968 -3.34802, 0.193611 -3.34827, 0.481537 -3.34802, 0.745281 -3.3057, 0.98459 -3.22106, 1.2239 -3.13642, 1.42794 -3.01475, 1.59672 -2.8563, 1.76549 -2.6976, 1.89774 -2.51422, 1.99322 -2.30614, 2.08869 -2.09782, 2.1363 -1.86758, 2.1363 -1.61517, 2.1363 -1.33556, 2.07282 -1.07811, 1.94535 -0.843083, 1.81814 -0.607804, 1.66045 -0.392174, 1.47228 -0.196193, 1.2841 4.07696e-005, 1.08409 0.184687, 0.872241 0.357997, 0.660641 0.531307, 0.468942 0.699831, 0.297395 0.863569 L -0.657574 1.76236, 0.592124 1.76236 C 0.766441 1.76262, 0.929171 1.76136, 1.07981 1.75858, 1.2307 1.75607, 1.35867 1.75052, 1.46396 1.74246, 1.56926 1.7344, 1.62317 1.72911, 1.62569 1.72609, 1.64785 1.70745, 1.66876 1.66991, 1.68816 1.61349, 1.70756 1.55706, 1.72544 1.49056, 1.74207 1.41398, 1.75869 1.3374, 1.77532 1.25956, 1.79194 1.18021, 1.80857 1.10111, 1.82368 1.01421, 1.83754 0.919995 L 2.14461 0.919995 Z" stroke="none" fill="#000000" transform="matrix(1.12 0 0 1 39.3692 12.8121)" />
			<path d="M 17.0608 28.9936 C 17.0464 29.0566, 17.0131 29.1092, 16.9609 29.1524, 16.9092 29.1956, 16.8462 29.2172, 16.772 29.2167, 16.5943 29.2172, 16.4216 29.2307, 16.2534 29.2568, 16.0851 29.2833, 15.9295 29.3467, 15.786 29.447, 15.6677 29.5195, 15.5741 29.6144, 15.5048 29.7318, 15.4356 29.8496, 15.3838 29.9751, 15.3487 30.1092 L 13.1626 38.6235 C 13.1086 38.7675, 13.0119 38.8395, 12.8733 38.8395 L 12.7029 38.8395 C 12.6142 38.8395, 12.5477 38.8012, 12.5027 38.7243, 11.9444 37.2183, 11.3898 35.7154, 10.8388 34.2157, 10.2882 32.7164, 9.76052 31.2994, 9.25671 29.9652 L 7.34449 37.4 C 7.3148 37.4819, 7.29995 37.5637, 7.29995 37.6447, 7.29995 37.6789, 7.3049 37.7149, 7.3148 37.7527, 7.32964 37.8683, 7.37418 37.9596, 7.44795 38.0262, 7.53701 38.113, 7.65577 38.1706, 7.80376 38.1994, 7.95221 38.2281, 8.11999 38.2425, 8.30802 38.2421, 8.44657 38.2425, 8.51539 38.3001, 8.51539 38.4148, 8.51539 38.4441, 8.51044 38.4751, 8.50055 38.5084 L 8.47086 38.6163 C 8.45646 38.6838, 8.42048 38.7378, 8.3638 38.7783, 8.30712 38.8192, 8.2464 38.8395, 8.18207 38.8395, 7.68816 38.8107, 7.1866 38.7963, 6.67739 38.7963, 6.17358 38.7963, 5.66438 38.8107, 5.15067 38.8395, 5.07645 38.8395, 5.02202 38.8179, 4.98738 38.7747, 4.9532 38.7414, 4.9361 38.7054, 4.93565 38.6667, 4.9361 38.6384, 4.94105 38.6096, 4.9505 38.5804 L 4.98019 38.4724 C 4.99503 38.4103, 5.02967 38.3568, 5.0841 38.3109, 5.13853 38.2655, 5.20015 38.2425, 5.26898 38.2421, 5.45701 38.2425, 5.63244 38.2281, 5.79528 38.1994, 5.95856 38.1706, 6.11421 38.1107, 6.2622 38.019, 6.37601 37.9474, 6.46732 37.853, 6.53659 37.7351, 6.60587 37.6177, 6.65985 37.4918, 6.69943 37.3568 L 8.77494 29.2887 C 8.69128 29.2604, 8.53923 29.2415, 8.31927 29.2316, 8.0993 29.2221, 7.86584 29.2172, 7.61843 29.2167, 7.54466 29.2172, 7.49023 29.1933, 7.4556 29.1447, 7.42591 29.1164, 7.41106 29.0804, 7.41106 29.0368, 7.41106 29.0084, 7.41871 28.9819, 7.4331 28.9576 L 7.4556 28.8425 C 7.51003 28.699, 7.60629 28.627, 7.74439 28.6265 L 10.0646 28.6265 C 10.1586 28.627, 10.2202 28.6652, 10.2495 28.7417 L 13.0735 36.3564, 14.6965 30.066 C 14.7262 29.9801, 14.741 29.8937, 14.741 29.8069, 14.741 29.6585, 14.6942 29.5361, 14.6002 29.4398, 14.4968 29.3395, 14.3744 29.2774, 14.2336 29.2532, 14.0928 29.2293, 13.9286 29.2172, 13.7406 29.2167, 13.6668 29.2172, 13.6124 29.1956, 13.5773 29.1519, 13.5431 29.1187, 13.5256 29.0804, 13.5256 29.0368, 13.5256 29.0084, 13.5332 28.9819, 13.5481 28.9576 L 13.5701 28.8425 C 13.6246 28.699, 13.7208 28.627, 13.8594 28.6265, 14.3632 28.6463, 14.8697 28.6558, 15.3784 28.6553, 15.8827 28.6558, 16.3892 28.6463, 16.898 28.6265, 16.9672 28.627, 17.0266 28.6508, 17.0756 28.6985, 17.0954 28.7372, 17.1053 28.7732, 17.1053 28.8065, 17.1053 28.8357, 17.0981 28.8623, 17.0833 28.8856 Z" stroke="none" fill="#000000" />
			<path d="M 1.87885 2.51203 L -1.50019 2.51203, -1.50019 2.29035 C -1.50019 2.27448, -1.49188 2.2503, -1.47526 2.21781 L -0.117743 0.742655 C 0.0427202 0.565566, 0.205198 0.384195, 0.369944 0.198793, 0.534689 0.0133917, 0.682305 -0.17604, 0.812288 -0.369503, 0.94227 -0.562965, 1.04606 -0.762474, 1.12364 -0.968027, 1.20123 -1.17358, 1.23977 -1.38921, 1.23977 -1.61517, 1.23977 -1.80561, 1.21483 -1.98371, 1.16495 -2.14895, 1.11508 -2.3142, 1.04328 -2.4593, 0.949072 -2.58425, 0.855112 -2.70919, 0.737472 -2.80995, 0.596406 -2.88653, 0.455339 -2.96311, 0.291853 -3.0014, 0.106452 -3.00165, -0.170139 -3.0014, -0.414486 -2.91877, -0.626338 -2.75353, -0.837937 -2.58828, -0.9785 -2.40615, -1.04777 -2.20765, -1.06138 -2.20211, -1.03921 -2.19934, -0.981271 -2.19959 L -0.910738 -2.19959 C -0.827609 -2.18044, -0.755816 -2.15147, -0.694856 -2.11268, -0.633895 -2.07364, -0.582758 -2.01998, -0.541194 -1.95146, -0.49963 -1.88294, -0.478974 -1.80032, -0.478974 -1.70384, -0.478974 -1.54237, -0.53137 -1.41868, -0.636666 -1.33278, -0.741962 -1.24663, -0.859601 -1.20381, -0.989584 -1.20406, -1.11402 -1.20381, -1.2304 -1.24663, -1.33822 -1.33278, -1.44603 -1.41868, -1.50019 -1.54237, -1.50019 -1.70384, -1.50019 -1.92929, -1.45586 -2.14291, -1.36719 -2.34443, -1.27852 -2.54596, -1.15836 -2.72053, -1.00621 -2.86839, -0.854059 -3.01601, -0.674199 -3.13289, -0.46663 -3.21904, -0.259061 -3.30494, -0.0388968 -3.34802, 0.193611 -3.34827, 0.481537 -3.34802, 0.745281 -3.3057, 0.98459 -3.22106, 1.2239 -3.13642, 1.42794 -3.01475, 1.59672 -2.8563, 1.76549 -2.6976, 1.89774 -2.51422, 1.99322 -2.30614, 2.08869 -2.09782, 2.1363 -1.86758, 2.1363 -1.61517, 2.1363 -1.33556, 2.07282 -1.07811, 1.94535 -0.843083, 1.81814 -0.607804, 1.66045 -0.392174, 1.47228 -0.196193, 1.2841 4.07696e-005, 1.08409 0.184687, 0.872241 0.357997, 0.660641 0.531307, 0.468942 0.699831, 0.297395 0.863569 L -0.657574 1.76236, 0.592124 1.76236 C 0.766441 1.76262, 0.929171 1.76136, 1.07981 1.75858, 1.2307 1.75607, 1.35867 1.75052, 1.46396 1.74246, 1.56926 1.7344, 1.62317 1.72911, 1.62569 1.72609, 1.64785 1.70745, 1.66876 1.66991, 1.68816 1.61349, 1.70756 1.55706, 1.72544 1.49056, 1.74207 1.41398, 1.75869 1.3374, 1.77532 1.25956, 1.79194 1.18021, 1.80857 1.10111, 1.82368 1.01421, 1.83754 0.919995 L 2.14461 0.919995 Z" stroke="none" fill="#000000" transform="matrix(1.12 0 0 1 18.6378 38.4181)" />
			<path d="M 25.3256 38.7243 C 25.3256 39.2857, 25.2109 39.816, 24.981 40.3149, 24.7516 40.8142, 24.4291 41.2555, 24.0139 41.6392, 23.9698 41.668, 23.9203 41.6824, 23.8655 41.6824, 23.8263 41.6824, 23.7746 41.668, 23.7098 41.6392 L 23.6729 41.5816 C 23.6333 41.5434, 23.6136 41.5002, 23.6136 41.4521, 23.6136 41.4089, 23.6333 41.3585, 23.6729 41.3009, 24.0485 40.9555, 24.3364 40.5623, 24.5366 40.1206, 24.7368 39.6793, 24.8366 39.2137, 24.8366 38.7243, 24.8366 38.691, 24.8344 38.6541, 24.8294 38.6132, 24.8245 38.5727, 24.8218 38.5975, 24.8218 38.6883, 24.7426 38.7796, 24.56 38.8251, 24.2735 38.8251, 23.9869 38.8251, 23.7696 38.7369, 23.6212 38.5592, 23.4728 38.382, 23.3985 38.185, 23.3985 37.9686, 23.3985 37.7531, 23.4728 37.5579, 23.6212 37.3825, 23.7696 37.2075, 23.9869 37.1198, 24.2735 37.1193, 24.4858 37.1198, 24.659 37.1737, 24.7921 37.2817, 24.9257 37.3897, 25.0319 37.5206, 25.111 37.674, 25.1902 37.8278, 25.2455 37.9978, 25.2775 38.185, 25.3099 38.3721, 25.3256 38.552, 25.3256 38.7243 Z" stroke="none" fill="#000000" />
			<path d="M 38.4799 29.0008 C 38.4507 29.1452, 38.3616 29.2172, 38.2132 29.2167, 38.0553 29.2172, 37.9046 29.2352, 37.7611 29.2711, 37.618 29.3071, 37.4781 29.3683, 37.3423 29.4547, 37.2065 29.541, 37.0818 29.6454, 36.968 29.7678, 36.8547 29.8901, 36.7508 30.0282, 36.6568 30.1812 L 31.2539 38.969 C 31.1801 39.1035, 31.0663 39.1683, 30.9129 39.1633 L 30.7721 39.1633 C 30.5895 39.1633, 30.5004 39.0869, 30.5053 38.933 L 29.5787 29.7421 C 29.5589 29.618, 29.5391 29.5208, 29.5193 29.4511, 29.4995 29.3818, 29.4703 29.3323, 29.4307 29.3031, 29.3614 29.2653, 29.2517 29.2415, 29.101 29.2316, 28.9503 29.2221, 28.7785 29.2172, 28.5855 29.2167, 28.5117 29.2172, 28.4573 29.1933, 28.4226 29.1447, 28.393 29.1164, 28.3781 29.0804, 28.3781 29.0368, 28.3781 29.0084, 28.3858 28.9819, 28.4001 28.9576 L 28.4226 28.8497 C 28.4375 28.7876, 28.4708 28.735, 28.5225 28.6918, 28.5747 28.6486, 28.6377 28.627, 28.7114 28.6265, 29.186 28.6558, 29.6655 28.6702, 30.1495 28.6697, 30.2238 28.6702, 30.3029 28.6652, 30.3866 28.6553, 30.9597 28.6558, 31.5332 28.6463, 32.1063 28.6265, 32.1756 28.627, 32.2372 28.6508, 32.2916 28.6985, 32.3114 28.7372, 32.3209 28.7732, 32.3209 28.8065, 32.3209 28.8357, 32.3137 28.8623, 32.2988 28.8856 L 32.2768 28.9936 C 32.2619 29.0611, 32.2259 29.1155, 32.1693 29.156, 32.1126 29.1969, 32.0519 29.2172, 31.9875 29.2167, 31.8148 29.2172, 31.6565 29.2244, 31.5134 29.2388, 31.3704 29.2532, 31.2291 29.2914, 31.0906 29.3535, 31.0069 29.3971, 30.9673 29.4691, 30.9723 29.5694 L 30.9723 29.6198 C 31.145 30.8964, 31.2836 32.1788, 31.387 33.4672, 31.4909 34.7555, 31.602 35.9754, 31.7208 37.1265 L 36.0936 30.0084 C 36.1579 29.9081, 36.1975 29.8024, 36.2123 29.6917 L 36.2123 29.6558 C 36.2123 29.5842, 36.1952 29.5195, 36.1601 29.4614, 36.0517 29.2986, 35.8493 29.2172, 35.5524 29.2167, 35.4242 29.2172, 35.3599 29.1524, 35.3599 29.0224 L 35.3599 28.972, 35.3896 28.8425 C 35.444 28.699, 35.5403 28.627, 35.6784 28.6265, 36.1134 28.6463, 36.5506 28.6558, 36.9905 28.6553, 37.0499 28.6652, 37.1066 28.6702, 37.161 28.6697, 37.5366 28.6702, 37.9221 28.6558, 38.3171 28.6265, 38.4507 28.627, 38.5222 28.6918, 38.5321 28.8209 L 38.5321 28.8784 Z" stroke="none" fill="#000000" />
			<path d="M 1.87885 2.51203 L -1.50019 2.51203, -1.50019 2.29035 C -1.50019 2.27448, -1.49188 2.2503, -1.47526 2.21781 L -0.117743 0.742655 C 0.0427202 0.565566, 0.205198 0.384195, 0.369944 0.198793, 0.534689 0.0133917, 0.682305 -0.17604, 0.812288 -0.369503, 0.94227 -0.562965, 1.04606 -0.762474, 1.12364 -0.968027, 1.20123 -1.17358, 1.23977 -1.38921, 1.23977 -1.61517, 1.23977 -1.80561, 1.21483 -1.98371, 1.16495 -2.14895, 1.11508 -2.3142, 1.04328 -2.4593, 0.949072 -2.58425, 0.855112 -2.70919, 0.737472 -2.80995, 0.596406 -2.88653, 0.455339 -2.96311, 0.291853 -3.0014, 0.106452 -3.00165, -0.170139 -3.0014, -0.414486 -2.91877, -0.626338 -2.75353, -0.837937 -2.58828, -0.9785 -2.40615, -1.04777 -2.20765, -1.06138 -2.20211, -1.03921 -2.19934, -0.981271 -2.19959 L -0.910738 -2.19959 C -0.827609 -2.18044, -0.755816 -2.15147, -0.694856 -2.11268, -0.633895 -2.07364, -0.582758 -2.01998, -0.541194 -1.95146, -0.49963 -1.88294, -0.478974 -1.80032, -0.478974 -1.70384, -0.478974 -1.54237, -0.53137 -1.41868, -0.636666 -1.33278, -0.741962 -1.24663, -0.859601 -1.20381, -0.989584 -1.20406, -1.11402 -1.20381, -1.2304 -1.24663, -1.33822 -1.33278, -1.44603 -1.41868, -1.50019 -1.54237, -1.50019 -1.70384, -1.50019 -1.92929, -1.45586 -2.14291, -1.36719 -2.34443, -1.27852 -2.54596, -1.15836 -2.72053, -1.00621 -2.86839, -0.854059 -3.01601, -0.674199 -3.13289, -0.46663 -3.21904, -0.259061 -3.30494, -0.0388968 -3.34802, 0.193611 -3.34827, 0.481537 -3.34802, 0.745281 -3.3057, 0.98459 -3.22106, 1.2239 -3.13642, 1.42794 -3.01475, 1.59672 -2.8563, 1.76549 -2.6976, 1.89774 -2.51422, 1.99322 -2.30614, 2.08869 -2.09782, 2.1363 -1.86758, 2.1363 -1.61517, 2.1363 -1.33556, 2.07282 -1.07811, 1.94535 -0.843083, 1.81814 -0.607804, 1.66045 -0.392174, 1.47228 -0.196193, 1.2841 4.07696e-005, 1.08409 0.184687, 0.872241 0.357997, 0.660641 0.531307, 0.468942 0.699831, 0.297395 0.863569 L -0.657574 1.76236, 0.592124 1.76236 C 0.766441 1.76262, 0.929171 1.76136, 1.07981 1.75858, 1.2307 1.75607, 1.35867 1.75052, 1.46396 1.74246, 1.56926 1.7344, 1.62317 1.72911, 1.62569 1.72609, 1.64785 1.70745, 1.66876 1.66991, 1.68816 1.61349, 1.70756 1.55706, 1.72544 1.49056, 1.74207 1.41398, 1.75869 1.3374, 1.77532 1.25956, 1.79194 1.18021, 1.80857 1.10111, 1.82368 1.01421, 1.83754 0.919995 L 2.14461 0.919995 Z" stroke="none" fill="#000000" transform="matrix(1.12 0 0 1 39.4233 38.4181)" />
			<path d="M 46.1111 38.7243 C 46.1111 39.2857, 45.9964 39.816, 45.7665 40.3149, 45.5371 40.8142, 45.2146 41.2555, 44.7994 41.6392, 44.7553 41.668, 44.7058 41.6824, 44.6509 41.6824, 44.6118 41.6824, 44.5601 41.668, 44.4953 41.6392 L 44.4584 41.5816 C 44.4188 41.5434, 44.399 41.5002, 44.399 41.4521, 44.399 41.4089, 44.4188 41.3585, 44.4584 41.3009, 44.834 40.9555, 45.1219 40.5623, 45.3221 40.1206, 45.5222 39.6793, 45.6221 39.2137, 45.6221 38.7243, 45.6221 38.691, 45.6199 38.6541, 45.6149 38.6132, 45.61 38.5727, 45.6073 38.5975, 45.6073 38.6883, 45.5281 38.7796, 45.3455 38.8251, 45.0589 38.8251, 44.7724 38.8251, 44.5551 38.7369, 44.4067 38.5592, 44.2582 38.382, 44.184 38.185, 44.184 37.9686, 44.184 37.7531, 44.2582 37.5579, 44.4067 37.3825, 44.5551 37.2075, 44.7724 37.1198, 45.0589 37.1193, 45.2712 37.1198, 45.4444 37.1737, 45.5776 37.2817, 45.7112 37.3897, 45.8173 37.5206, 45.8965 37.674, 45.9757 37.8278, 46.031 37.9978, 46.0629 38.185, 46.0953 38.3721, 46.1111 38.552, 46.1111 38.7243 Z" stroke="none" fill="#000000" />
			<path d="M 59.0018 31.8869 C 58.9869 31.9499, 58.955 32.0039, 58.9055 32.0493, 58.856 32.0952, 58.8016 32.1177, 58.7422 32.1172, 58.7224 32.1271, 58.6977 32.1321, 58.668 32.1316, 58.6091 32.1321, 58.5794 32.1271, 58.5794 32.1172, 58.4561 32.1177, 58.3891 32.065, 58.3792 31.9589 L 58.3792 31.9085 C 58.4089 31.6836, 58.4336 31.4555, 58.453 31.2248, 58.4728 31.0475, 58.4827 30.8847, 58.4827 30.7353 L 58.4827 30.613 C 58.4728 30.4214, 58.4494 30.25, 58.4125 30.0988, 58.3756 29.9477, 58.3099 29.8195, 58.2159 29.7133, 58.0283 29.4929, 57.7495 29.3625, 57.3788 29.3215, 57.0081 29.281, 56.6127 29.2604, 56.1926 29.2599 L 54.5993 29.2599 C 54.3375 29.2604, 54.1841 29.2797, 54.1396 29.3175, 54.1153 29.3373, 54.0658 29.4785, 53.9916 29.7421 L 53.0726 33.2544, 54.095 33.2544 C 54.3721 33.2548, 54.624 33.2431, 54.8512 33.2188, 55.0788 33.195, 55.274 33.123, 55.4369 33.0025, 55.5853 32.8828, 55.6978 32.715, 55.7743 32.4991, 55.8507 32.2832, 55.9263 32.0362, 56.0001 31.7574, 56.0545 31.6139, 56.1485 31.5441, 56.2817 31.5486 L 56.4076 31.5486 C 56.5462 31.5491, 56.615 31.6116, 56.615 31.7358 L 56.615 31.7861, 55.6888 35.3488 C 55.6591 35.4981, 55.5628 35.5701, 55.3995 35.5647 L 55.2812 35.5647 C 55.1427 35.5652, 55.0734 35.5076, 55.0734 35.392, 55.0734 35.3636, 55.0811 35.3371, 55.0959 35.3128, 55.1602 35.0447, 55.207 34.7973, 55.2367 34.5715, 55.2466 34.5144, 55.2516 34.464, 55.2516 34.4203, 55.2516 34.2863, 55.2219 34.1783, 55.1625 34.0965, 55.0788 33.9818, 54.929 33.9134, 54.714 33.8918, 54.499 33.8702, 54.2583 33.8594, 53.9916 33.859 L 52.9241 33.859, 51.9089 37.8031 C 51.8594 37.9713, 51.8346 38.0963, 51.8346 38.1773 L 51.8346 38.2061 C 51.8544 38.2259, 51.993 38.2376, 52.2498 38.2421 L 53.947 38.2421 C 54.387 38.2425, 54.813 38.2128, 55.2255 38.1526, 55.6384 38.0927, 56.0226 37.9403, 56.3779 37.6951, 56.5363 37.5804, 56.687 37.427, 56.83 37.2349, 56.9735 37.0433, 57.1093 36.831, 57.238 36.598, 57.3666 36.3654, 57.4886 36.1184, 57.6046 35.8566, 57.7207 35.5953, 57.8358 35.3371, 57.9492 35.0825, 57.9888 34.9678, 58.0756 34.9102, 58.2087 34.9098 L 58.3347 34.9098 C 58.4732 34.9102, 58.5421 34.9727, 58.5421 35.0969 L 58.5421 35.1545, 57.0671 38.6667 C 57.0131 38.7819, 56.924 38.8395, 56.8003 38.8395 L 49.0925 38.8395 C 49.0183 38.8395, 48.9638 38.8179, 48.9292 38.7747, 48.895 38.7414, 48.8779 38.7054, 48.8775 38.6667, 48.8779 38.6384, 48.8829 38.6096, 48.8923 38.5804 L 48.922 38.4724 C 48.9369 38.4103, 48.9715 38.3568, 49.0259 38.3109, 49.0803 38.2655, 49.142 38.2425, 49.2108 38.2421, 49.4434 38.2425, 49.6611 38.2389, 49.8635 38.2317, 50.0659 38.2245, 50.2193 38.1994, 50.3228 38.1557, 50.4118 38.108, 50.4807 37.9785, 50.5301 37.7671 L 52.6129 29.7061 C 52.6425 29.6009, 52.6574 29.5172, 52.6574 29.4542, 52.6574 29.3971, 52.6452 29.3634, 52.6201 29.3535, 52.5512 29.3107, 52.4154 29.2846, 52.213 29.2747, 52.0105 29.2653, 51.7928 29.2604, 51.5603 29.2599, 51.4222 29.2604, 51.3529 29.1956, 51.3529 29.0656 L 51.3529 29.0152, 51.3826 28.8928 C 51.4222 28.735, 51.5184 28.6558, 51.6714 28.6553 L 59.1795 28.6553 C 59.3032 28.6558, 59.3697 28.7156, 59.3796 28.8353 L 59.3796 28.8856 Z" stroke="none" fill="#000000" />
			<path d="M 1.87885 2.51203 L -1.50019 2.51203, -1.50019 2.29035 C -1.50019 2.27448, -1.49188 2.2503, -1.47526 2.21781 L -0.117743 0.742655 C 0.0427202 0.565566, 0.205198 0.384195, 0.369944 0.198793, 0.534689 0.0133917, 0.682305 -0.17604, 0.812288 -0.369503, 0.94227 -0.562965, 1.04606 -0.762474, 1.12364 -0.968027, 1.20123 -1.17358, 1.23977 -1.38921, 1.23977 -1.61517, 1.23977 -1.80561, 1.21483 -1.98371, 1.16495 -2.14895, 1.11508 -2.3142, 1.04328 -2.4593, 0.949072 -2.58425, 0.855112 -2.70919, 0.737472 -2.80995, 0.596406 -2.88653, 0.455339 -2.96311, 0.291853 -3.0014, 0.106452 -3.00165, -0.170139 -3.0014, -0.414486 -2.91877, -0.626338 -2.75353, -0.837937 -2.58828, -0.9785 -2.40615, -1.04777 -2.20765, -1.06138 -2.20211, -1.03921 -2.19934, -0.981271 -2.19959 L -0.910738 -2.19959 C -0.827609 -2.18044, -0.755816 -2.15147, -0.694856 -2.11268, -0.633895 -2.07364, -0.582758 -2.01998, -0.541194 -1.95146, -0.49963 -1.88294, -0.478974 -1.80032, -0.478974 -1.70384, -0.478974 -1.54237, -0.53137 -1.41868, -0.636666 -1.33278, -0.741962 -1.24663, -0.859601 -1.20381, -0.989584 -1.20406, -1.11402 -1.20381, -1.2304 -1.24663, -1.33822 -1.33278, -1.44603 -1.41868, -1.50019 -1.54237, -1.50019 -1.70384, -1.50019 -1.92929, -1.45586 -2.14291, -1.36719 -2.34443, -1.27852 -2.54596, -1.15836 -2.72053, -1.00621 -2.86839, -0.854059 -3.01601, -0.674199 -3.13289, -0.46663 -3.21904, -0.259061 -3.30494, -0.0388968 -3.34802, 0.193611 -3.34827, 0.481537 -3.34802, 0.745281 -3.3057, 0.98459 -3.22106, 1.2239 -3.13642, 1.42794 -3.01475, 1.59672 -2.8563, 1.76549 -2.6976, 1.89774 -2.51422, 1.99322 -2.30614, 2.08869 -2.09782, 2.1363 -1.86758, 2.1363 -1.61517, 2.1363 -1.33556, 2.07282 -1.07811, 1.94535 -0.843083, 1.81814 -0.607804, 1.66045 -0.392174, 1.47228 -0.196193, 1.2841 4.07696e-005, 1.08409 0.184687, 0.872241 0.357997, 0.660641 0.531307, 0.468942 0.699831, 0.297395 0.863569 L -0.657574 1.76236, 0.592124 1.76236 C 0.766441 1.76262, 0.929171 1.76136, 1.07981 1.75858, 1.2307 1.75607, 1.35867 1.75052, 1.46396 1.74246, 1.56926 1.7344, 1.62317 1.72911, 1.62569 1.72609, 1.64785 1.70745, 1.66876 1.66991, 1.68816 1.61349, 1.70756 1.55706, 1.72544 1.49056, 1.74207 1.41398, 1.75869 1.3374, 1.77532 1.25956, 1.79194 1.18021, 1.80857 1.10111, 1.82368 1.01421, 1.83754 0.919995 L 2.14461 0.919995 Z" stroke="none" fill="#000000" transform="matrix(1.12 0 0 1 61.7477 38.4181)" />
			<path d="M 1.22206 7.1281 C -3.58318 3.92045, -3.58318 -3.92045, 1.22206 -7.1281 L 1.97675 -7.1281 C -2.35681 -3.92045, -2.35681 3.92045, 1.97675 7.1281" stroke="none" fill="#000000" transform="matrix(1 0 -0 1 2.211 34.4118)" />
			<path d="M 1.22206 7.1281 C -3.58318 3.92045, -3.58318 -3.92045, 1.22206 -7.1281 L 1.97675 -7.1281 C -2.35681 -3.92045, -2.35681 3.92045, 1.97675 7.1281" stroke="none" fill="#000000" transform="matrix(-1 1.50996e-007 -1.50996e-007 -1 66.7317 34.4118)" />
			<rect />
		</svg>
	</g>
</svg>
